<?xml version="1.0" encoding="UTF-8" standalone="no"?>
<!DOCTYPE svg PUBLIC "-//W3C//DTD SVG 1.1//EN"
 "http://www.w3.org/Graphics/SVG/1.1/DTD/svg11.dtd">
<!-- Generated by graphviz version 2.36.0 (20140111.2315)
 -->
<!-- Title: %3 Pages: 1 -->
<svg width="763pt" height="1624pt"
 viewBox="0.00 0.00 763.00 1624.00" xmlns="http://www.w3.org/2000/svg" xmlns:xlink="http://www.w3.org/1999/xlink">
<g id="graph0" class="graph" transform="scale(1 1) rotate(0) translate(4 1620)">
<title>%3</title>
<polygon fill="white" stroke="none" points="-4,4 -4,-1620 759,-1620 759,4 -4,4"/>
<!-- 39 -->
<g id="node1" class="node"><title>39</title>
<polygon fill="#0d0f74" stroke="#0d0f74" points="147.25,-1340 34.75,-1340 34.75,-1288 147.25,-1288 147.25,-1340"/>
<text text-anchor="middle" x="91" y="-1328" font-family="Arial" font-size="10.00" fill="#ffffff">utilities:111:get_my_ip</text>
<text text-anchor="middle" x="91" y="-1317" font-family="Arial" font-size="10.00" fill="#ffffff">0.62%</text>
<text text-anchor="middle" x="91" y="-1306" font-family="Arial" font-size="10.00" fill="#ffffff">(0.00%)</text>
<text text-anchor="middle" x="91" y="-1295" font-family="Arial" font-size="10.00" fill="#ffffff">1×</text>
</g>
<!-- 874 -->
<g id="node2" class="node"><title>874</title>
<polygon fill="#0d0f74" stroke="#0d0f74" points="138.25,-1248 43.75,-1248 43.75,-1196 138.25,-1196 138.25,-1248"/>
<text text-anchor="middle" x="91" y="-1236" font-family="Arial" font-size="10.00" fill="#ffffff">urllib2:123:urlopen</text>
<text text-anchor="middle" x="91" y="-1225" font-family="Arial" font-size="10.00" fill="#ffffff">0.61%</text>
<text text-anchor="middle" x="91" y="-1214" font-family="Arial" font-size="10.00" fill="#ffffff">(0.00%)</text>
<text text-anchor="middle" x="91" y="-1203" font-family="Arial" font-size="10.00" fill="#ffffff">1×</text>
</g>
<!-- 39&#45;&gt;874 -->
<g id="edge1" class="edge"><title>39&#45;&gt;874</title>
<path fill="none" stroke="#0d0f74" stroke-width="0.5" d="M91,-1287.93C91,-1276.71 91,-1263.42 91,-1251.8"/>
<polygon fill="#0d0f74" stroke="#0d0f74" stroke-width="0.5" points="92.2251,-1251.75 91,-1248.25 89.7751,-1251.75 92.2251,-1251.75"/>
<text text-anchor="middle" x="105" y="-1271" font-family="Arial" font-size="10.00" fill="#0d0f74">0.61%</text>
<text text-anchor="middle" x="105" y="-1260" font-family="Arial" font-size="10.00" fill="#0d0f74">1×</text>
</g>
<!-- 1030 -->
<g id="node21" class="node"><title>1030</title>
<polygon fill="#0d0f74" stroke="#0d0f74" points="127.25,-1156 42.75,-1156 42.75,-1104 127.25,-1104 127.25,-1156"/>
<text text-anchor="middle" x="85" y="-1144" font-family="Arial" font-size="10.00" fill="#ffffff">urllib2:386:open</text>
<text text-anchor="middle" x="85" y="-1133" font-family="Arial" font-size="10.00" fill="#ffffff">0.61%</text>
<text text-anchor="middle" x="85" y="-1122" font-family="Arial" font-size="10.00" fill="#ffffff">(0.00%)</text>
<text text-anchor="middle" x="85" y="-1111" font-family="Arial" font-size="10.00" fill="#ffffff">1×</text>
</g>
<!-- 874&#45;&gt;1030 -->
<g id="edge14" class="edge"><title>874&#45;&gt;1030</title>
<path fill="none" stroke="#0d0f74" stroke-width="0.5" d="M89.3287,-1195.93C88.5808,-1184.71 87.6948,-1171.42 86.9199,-1159.8"/>
<polygon fill="#0d0f74" stroke="#0d0f74" stroke-width="0.5" points="88.1384,-1159.66 86.6832,-1156.25 85.6938,-1159.82 88.1384,-1159.66"/>
<text text-anchor="middle" x="103" y="-1179" font-family="Arial" font-size="10.00" fill="#0d0f74">0.61%</text>
<text text-anchor="middle" x="103" y="-1168" font-family="Arial" font-size="10.00" fill="#0d0f74">1×</text>
</g>
<!-- 118 -->
<g id="node3" class="node"><title>118</title>
<polygon fill="#0c6e8c" stroke="#0c6e8c" points="259.25,-788 158.75,-788 158.75,-736 259.25,-736 259.25,-788"/>
<text text-anchor="middle" x="209" y="-776" font-family="Arial" font-size="10.00" fill="#ffffff">uniqueid:7:_get_uid</text>
<text text-anchor="middle" x="209" y="-765" font-family="Arial" font-size="10.00" fill="#ffffff">19.24%</text>
<text text-anchor="middle" x="209" y="-754" font-family="Arial" font-size="10.00" fill="#ffffff">(0.00%)</text>
<text text-anchor="middle" x="209" y="-743" font-family="Arial" font-size="10.00" fill="#ffffff">2×</text>
</g>
<!-- 2824 -->
<g id="node4" class="node"><title>2824</title>
<polygon fill="#0c6e8c" stroke="#0c6e8c" points="293.25,-696 146.75,-696 146.75,-644 293.25,-644 293.25,-696"/>
<text text-anchor="middle" x="220" y="-684" font-family="Arial" font-size="10.00" fill="#ffffff">subprocess:768:communicate</text>
<text text-anchor="middle" x="220" y="-673" font-family="Arial" font-size="10.00" fill="#ffffff">19.21%</text>
<text text-anchor="middle" x="220" y="-662" font-family="Arial" font-size="10.00" fill="#ffffff">(0.00%)</text>
<text text-anchor="middle" x="220" y="-651" font-family="Arial" font-size="10.00" fill="#ffffff">18×</text>
</g>
<!-- 118&#45;&gt;2824 -->
<g id="edge2" class="edge"><title>118&#45;&gt;2824</title>
<path fill="none" stroke="#0c6e8c" stroke-width="0.77" d="M212.064,-735.93C213.4,-725.002 214.976,-712.108 216.37,-700.703"/>
<polygon fill="#0c6e8c" stroke="#0c6e8c" stroke-width="0.77" points="217.909,-700.802 216.914,-696.248 214.852,-700.428 217.909,-700.802"/>
<text text-anchor="middle" x="233" y="-719" font-family="Arial" font-size="10.00" fill="#0c6e8c">19.18%</text>
<text text-anchor="middle" x="233" y="-708" font-family="Arial" font-size="10.00" fill="#0c6e8c">2×</text>
</g>
<!-- 886 -->
<g id="node22" class="node"><title>886</title>
<polygon fill="#0c708c" stroke="#0c708c" points="303.5,-604 146.5,-604 146.5,-552 303.5,-552 303.5,-604"/>
<text text-anchor="middle" x="225" y="-592" font-family="Arial" font-size="10.00" fill="#ffffff">subprocess:473:_eintr_retry_call</text>
<text text-anchor="middle" x="225" y="-581" font-family="Arial" font-size="10.00" fill="#ffffff">19.46%</text>
<text text-anchor="middle" x="225" y="-570" font-family="Arial" font-size="10.00" fill="#ffffff">(0.00%)</text>
<text text-anchor="middle" x="225" y="-559" font-family="Arial" font-size="10.00" fill="#ffffff">56×</text>
</g>
<!-- 2824&#45;&gt;886 -->
<g id="edge37" class="edge"><title>2824&#45;&gt;886</title>
<path fill="none" stroke="#0c6e8c" stroke-width="0.77" d="M221.393,-643.93C222,-633.002 222.716,-620.108 223.35,-608.703"/>
<polygon fill="#0c6e8c" stroke="#0c6e8c" stroke-width="0.77" points="224.891,-608.726 223.597,-604.248 221.816,-608.555 224.891,-608.726"/>
<text text-anchor="middle" x="241" y="-627" font-family="Arial" font-size="10.00" fill="#0c6e8c">19.20%</text>
<text text-anchor="middle" x="241" y="-616" font-family="Arial" font-size="10.00" fill="#0c6e8c">18×</text>
</g>
<!-- 175 -->
<g id="node5" class="node"><title>175</title>
<polygon fill="#0d0f73" stroke="#0d0f73" points="537.25,-1064 244.75,-1064 244.75,-1012 537.25,-1012 537.25,-1064"/>
<text text-anchor="middle" x="391" y="-1052" font-family="Arial" font-size="10.00" fill="#ffffff">~:0:&lt;method &#39;dispatch&#39; of &#39;kivy._event.EventDispatcher&#39; objects&gt;</text>
<text text-anchor="middle" x="391" y="-1041" font-family="Arial" font-size="10.00" fill="#ffffff">0.51%</text>
<text text-anchor="middle" x="391" y="-1030" font-family="Arial" font-size="10.00" fill="#ffffff">(0.01%)</text>
<text text-anchor="middle" x="391" y="-1019" font-family="Arial" font-size="10.00" fill="#ffffff">172×</text>
</g>
<!-- 217 -->
<g id="node6" class="node"><title>217</title>
<polygon fill="#0c7e8f" stroke="#0c7e8f" points="317.25,-1524 216.75,-1524 216.75,-1472 317.25,-1472 317.25,-1524"/>
<text text-anchor="middle" x="267" y="-1512" font-family="Arial" font-size="10.00" fill="#ffffff">service:5:&lt;module&gt;</text>
<text text-anchor="middle" x="267" y="-1501" font-family="Arial" font-size="10.00" fill="#ffffff">21.75%</text>
<text text-anchor="middle" x="267" y="-1490" font-family="Arial" font-size="10.00" fill="#ffffff">(0.01%)</text>
<text text-anchor="middle" x="267" y="-1479" font-family="Arial" font-size="10.00" fill="#ffffff">1×</text>
</g>
<!-- 271 -->
<g id="node7" class="node"><title>271</title>
<polygon fill="#0d4281" stroke="#0d4281" points="204,-1432 78,-1432 78,-1380 204,-1380 204,-1432"/>
<text text-anchor="middle" x="141" y="-1420" font-family="Arial" font-size="10.00" fill="#ffffff">configuration:8:&lt;module&gt;</text>
<text text-anchor="middle" x="141" y="-1409" font-family="Arial" font-size="10.00" fill="#ffffff">11.43%</text>
<text text-anchor="middle" x="141" y="-1398" font-family="Arial" font-size="10.00" fill="#ffffff">(0.01%)</text>
<text text-anchor="middle" x="141" y="-1387" font-family="Arial" font-size="10.00" fill="#ffffff">1×</text>
</g>
<!-- 217&#45;&gt;271 -->
<g id="edge3" class="edge"><title>217&#45;&gt;271</title>
<path fill="none" stroke="#0d4281" stroke-width="0.5" d="M231.902,-1471.93C215.519,-1460.23 195.982,-1446.27 179.226,-1434.3"/>
<polygon fill="#0d4281" stroke="#0d4281" stroke-width="0.5" points="179.907,-1433.29 176.347,-1432.25 178.483,-1435.28 179.907,-1433.29"/>
<text text-anchor="middle" x="236" y="-1455" font-family="Arial" font-size="10.00" fill="#0d4281">11.43%</text>
<text text-anchor="middle" x="236" y="-1444" font-family="Arial" font-size="10.00" fill="#0d4281">1×</text>
</g>
<!-- 753 -->
<g id="node8" class="node"><title>753</title>
<polygon fill="#0d397f" stroke="#0d397f" points="320.25,-1432 213.75,-1432 213.75,-1380 320.25,-1380 320.25,-1432"/>
<text text-anchor="middle" x="267" y="-1420" font-family="Arial" font-size="10.00" fill="#ffffff">services:5:&lt;module&gt;</text>
<text text-anchor="middle" x="267" y="-1409" font-family="Arial" font-size="10.00" fill="#ffffff">9.60%</text>
<text text-anchor="middle" x="267" y="-1398" font-family="Arial" font-size="10.00" fill="#ffffff">(0.00%)</text>
<text text-anchor="middle" x="267" y="-1387" font-family="Arial" font-size="10.00" fill="#ffffff">1×</text>
</g>
<!-- 217&#45;&gt;753 -->
<g id="edge4" class="edge"><title>217&#45;&gt;753</title>
<path fill="none" stroke="#0d397f" stroke-width="0.5" d="M267,-1471.93C267,-1460.71 267,-1447.42 267,-1435.8"/>
<polygon fill="#0d397f" stroke="#0d397f" stroke-width="0.5" points="268.225,-1435.75 267,-1432.25 265.775,-1435.75 268.225,-1435.75"/>
<text text-anchor="middle" x="281" y="-1455" font-family="Arial" font-size="10.00" fill="#0d397f">9.60%</text>
<text text-anchor="middle" x="281" y="-1444" font-family="Arial" font-size="10.00" fill="#0d397f">1×</text>
</g>
<!-- 271&#45;&gt;39 -->
<g id="edge6" class="edge"><title>271&#45;&gt;39</title>
<path fill="none" stroke="#0d0f74" stroke-width="0.5" d="M127.072,-1379.93C120.786,-1368.61 113.329,-1355.19 106.832,-1343.5"/>
<polygon fill="#0d0f74" stroke="#0d0f74" stroke-width="0.5" points="107.797,-1342.71 105.027,-1340.25 105.655,-1343.9 107.797,-1342.71"/>
<text text-anchor="middle" x="136" y="-1363" font-family="Arial" font-size="10.00" fill="#0d0f74">0.62%</text>
<text text-anchor="middle" x="136" y="-1352" font-family="Arial" font-size="10.00" fill="#0d0f74">1×</text>
</g>
<!-- 1468 -->
<g id="node10" class="node"><title>1468</title>
<polygon fill="#0c6e8c" stroke="#0c6e8c" points="258.25,-1156 137.75,-1156 137.75,-1104 258.25,-1104 258.25,-1156"/>
<text text-anchor="middle" x="198" y="-1144" font-family="Arial" font-size="10.00" fill="#ffffff">utils:78:__getattribute__</text>
<text text-anchor="middle" x="198" y="-1133" font-family="Arial" font-size="10.00" fill="#ffffff">19.24%</text>
<text text-anchor="middle" x="198" y="-1122" font-family="Arial" font-size="10.00" fill="#ffffff">(0.00%)</text>
<text text-anchor="middle" x="198" y="-1111" font-family="Arial" font-size="10.00" fill="#ffffff">2×</text>
</g>
<!-- 271&#45;&gt;1468 -->
<g id="edge5" class="edge"><title>271&#45;&gt;1468</title>
<path fill="none" stroke="#0d3a7f" stroke-width="0.5" d="M149.519,-1379.85C150.411,-1376.88 151.26,-1373.88 152,-1371 171.33,-1295.66 186.567,-1205.13 193.659,-1159.81"/>
<polygon fill="#0d3a7f" stroke="#0d3a7f" stroke-width="0.5" points="194.909,-1159.75 194.237,-1156.1 192.488,-1159.37 194.909,-1159.75"/>
<text text-anchor="middle" x="191" y="-1271" font-family="Arial" font-size="10.00" fill="#0d3a7f">9.89%</text>
<text text-anchor="middle" x="191" y="-1260" font-family="Arial" font-size="10.00" fill="#0d3a7f">1×</text>
</g>
<!-- 752 -->
<g id="node19" class="node"><title>752</title>
<polygon fill="#0d377f" stroke="#0d377f" points="310.25,-1340 209.75,-1340 209.75,-1288 310.25,-1288 310.25,-1340"/>
<text text-anchor="middle" x="260" y="-1328" font-family="Arial" font-size="10.00" fill="#ffffff">service:5:&lt;module&gt;</text>
<text text-anchor="middle" x="260" y="-1317" font-family="Arial" font-size="10.00" fill="#ffffff">9.34%</text>
<text text-anchor="middle" x="260" y="-1306" font-family="Arial" font-size="10.00" fill="#ffffff">(0.00%)</text>
<text text-anchor="middle" x="260" y="-1295" font-family="Arial" font-size="10.00" fill="#ffffff">1×</text>
</g>
<!-- 753&#45;&gt;752 -->
<g id="edge13" class="edge"><title>753&#45;&gt;752</title>
<path fill="none" stroke="#0d377f" stroke-width="0.5" d="M265.05,-1379.93C264.178,-1368.71 263.144,-1355.42 262.24,-1343.8"/>
<polygon fill="#0d377f" stroke="#0d377f" stroke-width="0.5" points="263.457,-1343.64 261.964,-1340.25 261.014,-1343.83 263.457,-1343.64"/>
<text text-anchor="middle" x="279" y="-1363" font-family="Arial" font-size="10.00" fill="#0d377f">9.34%</text>
<text text-anchor="middle" x="279" y="-1352" font-family="Arial" font-size="10.00" fill="#0d377f">1×</text>
</g>
<!-- 252 -->
<g id="node9" class="node"><title>252</title>
<polygon fill="#0d0f73" stroke="#0d0f73" points="582.25,-880 505.75,-880 505.75,-828 582.25,-828 582.25,-880"/>
<text text-anchor="middle" x="544" y="-868" font-family="Arial" font-size="10.00" fill="#ffffff">clock:287:tick</text>
<text text-anchor="middle" x="544" y="-857" font-family="Arial" font-size="10.00" fill="#ffffff">0.54%</text>
<text text-anchor="middle" x="544" y="-846" font-family="Arial" font-size="10.00" fill="#ffffff">(0.12%)</text>
<text text-anchor="middle" x="544" y="-835" font-family="Arial" font-size="10.00" fill="#ffffff">5518×</text>
</g>
<!-- 1337 -->
<g id="node32" class="node"><title>1337</title>
<polygon fill="#0c6f8c" stroke="#0c6f8c" points="235,-1064 161,-1064 161,-1012 235,-1012 235,-1064"/>
<text text-anchor="middle" x="198" y="-1052" font-family="Arial" font-size="10.00" fill="#ffffff">~:0:&lt;getattr&gt;</text>
<text text-anchor="middle" x="198" y="-1041" font-family="Arial" font-size="10.00" fill="#ffffff">19.28%</text>
<text text-anchor="middle" x="198" y="-1030" font-family="Arial" font-size="10.00" fill="#ffffff">(0.04%)</text>
<text text-anchor="middle" x="198" y="-1019" font-family="Arial" font-size="10.00" fill="#ffffff">23125×</text>
</g>
<!-- 1468&#45;&gt;1337 -->
<g id="edge27" class="edge"><title>1468&#45;&gt;1337</title>
<path fill="none" stroke="#0c6e8c" stroke-width="0.77" d="M198,-1103.93C198,-1093 198,-1080.11 198,-1068.7"/>
<polygon fill="#0c6e8c" stroke="#0c6e8c" stroke-width="0.77" points="199.54,-1068.65 198,-1064.25 196.46,-1068.65 199.54,-1068.65"/>
<text text-anchor="middle" x="215" y="-1087" font-family="Arial" font-size="10.00" fill="#0c6e8c">19.24%</text>
<text text-anchor="middle" x="215" y="-1076" font-family="Arial" font-size="10.00" fill="#0c6e8c">2×</text>
</g>
<!-- 273 -->
<g id="node11" class="node"><title>273</title>
<polygon fill="#dec505" stroke="#dec505" points="402,-1524 334,-1524 334,-1472 402,-1472 402,-1524"/>
<text text-anchor="middle" x="368" y="-1512" font-family="Arial" font-size="10.00" fill="#ffffff">app:760:run</text>
<text text-anchor="middle" x="368" y="-1501" font-family="Arial" font-size="10.00" fill="#ffffff">77.84%</text>
<text text-anchor="middle" x="368" y="-1490" font-family="Arial" font-size="10.00" fill="#ffffff">(0.00%)</text>
<text text-anchor="middle" x="368" y="-1479" font-family="Arial" font-size="10.00" fill="#ffffff">1×</text>
</g>
<!-- 582 -->
<g id="node12" class="node"><title>582</title>
<polygon fill="#dec505" stroke="#dec505" points="446.5,-1432 331.5,-1432 331.5,-1380 446.5,-1380 446.5,-1432"/>
<text text-anchor="middle" x="389" y="-1420" font-family="Arial" font-size="10.00" fill="#ffffff">base:397:runTouchApp</text>
<text text-anchor="middle" x="389" y="-1409" font-family="Arial" font-size="10.00" fill="#ffffff">77.83%</text>
<text text-anchor="middle" x="389" y="-1398" font-family="Arial" font-size="10.00" fill="#ffffff">(0.00%)</text>
<text text-anchor="middle" x="389" y="-1387" font-family="Arial" font-size="10.00" fill="#ffffff">1×</text>
</g>
<!-- 273&#45;&gt;582 -->
<g id="edge7" class="edge"><title>273&#45;&gt;582</title>
<path fill="none" stroke="#dec505" stroke-width="3.11" d="M373.85,-1471.93C376.084,-1462.36 378.67,-1451.27 381.066,-1441"/>
<polygon fill="#dec505" stroke="#dec505" stroke-width="3.11" points="384.109,-1441.52 383.109,-1432.25 378.11,-1440.12 384.109,-1441.52"/>
<text text-anchor="middle" x="398" y="-1455" font-family="Arial" font-size="10.00" fill="#dec505">77.83%</text>
<text text-anchor="middle" x="398" y="-1444" font-family="Arial" font-size="10.00" fill="#dec505">1×</text>
</g>
<!-- 1698 -->
<g id="node18" class="node"><title>1698</title>
<polygon fill="#ddc805" stroke="#ddc805" points="470.25,-1340 321.75,-1340 321.75,-1288 470.25,-1288 470.25,-1340"/>
<text text-anchor="middle" x="396" y="-1328" font-family="Arial" font-size="10.00" fill="#ffffff">window_pygame:378:mainloop</text>
<text text-anchor="middle" x="396" y="-1317" font-family="Arial" font-size="10.00" fill="#ffffff">77.40%</text>
<text text-anchor="middle" x="396" y="-1306" font-family="Arial" font-size="10.00" fill="#ffffff">(0.06%)</text>
<text text-anchor="middle" x="396" y="-1295" font-family="Arial" font-size="10.00" fill="#ffffff">1×</text>
</g>
<!-- 582&#45;&gt;1698 -->
<g id="edge11" class="edge"><title>582&#45;&gt;1698</title>
<path fill="none" stroke="#ddc805" stroke-width="3.1" d="M390.95,-1379.93C391.687,-1370.45 392.539,-1359.5 393.331,-1349.32"/>
<polygon fill="#ddc805" stroke="#ddc805" stroke-width="3.1" points="396.425,-1349.26 394.036,-1340.25 390.283,-1348.78 396.425,-1349.26"/>
<text text-anchor="middle" x="411" y="-1363" font-family="Arial" font-size="10.00" fill="#ddc805">77.40%</text>
<text text-anchor="middle" x="411" y="-1352" font-family="Arial" font-size="10.00" fill="#ddc805">1×</text>
</g>
<!-- 403 -->
<g id="node13" class="node"><title>403</title>
<polygon fill="#dad806" stroke="#dad806" points="623.25,-1064 546.75,-1064 546.75,-1012 623.25,-1012 623.25,-1064"/>
<text text-anchor="middle" x="585" y="-1052" font-family="Arial" font-size="10.00" fill="#ffffff">clock:382:tick</text>
<text text-anchor="middle" x="585" y="-1041" font-family="Arial" font-size="10.00" fill="#ffffff">75.17%</text>
<text text-anchor="middle" x="585" y="-1030" font-family="Arial" font-size="10.00" fill="#ffffff">(0.35%)</text>
<text text-anchor="middle" x="585" y="-1019" font-family="Arial" font-size="10.00" fill="#ffffff">2699×</text>
</g>
<!-- 1891 -->
<g id="node14" class="node"><title>1891</title>
<polygon fill="#0d1074" stroke="#0d1074" points="611,-972 477,-972 477,-920 611,-920 611,-972"/>
<text text-anchor="middle" x="544" y="-960" font-family="Arial" font-size="10.00" fill="#ffffff">clock:533:_process_events</text>
<text text-anchor="middle" x="544" y="-949" font-family="Arial" font-size="10.00" fill="#ffffff">0.80%</text>
<text text-anchor="middle" x="544" y="-938" font-family="Arial" font-size="10.00" fill="#ffffff">(0.23%)</text>
<text text-anchor="middle" x="544" y="-927" font-family="Arial" font-size="10.00" fill="#ffffff">2699×</text>
</g>
<!-- 403&#45;&gt;1891 -->
<g id="edge8" class="edge"><title>403&#45;&gt;1891</title>
<path fill="none" stroke="#0d1074" stroke-width="0.5" d="M573.579,-1011.93C568.425,-1000.61 562.31,-987.193 556.982,-975.497"/>
<polygon fill="#0d1074" stroke="#0d1074" stroke-width="0.5" points="558.068,-974.925 555.502,-972.248 555.838,-975.941 558.068,-974.925"/>
<text text-anchor="middle" x="584" y="-995" font-family="Arial" font-size="10.00" fill="#0d1074">0.80%</text>
<text text-anchor="middle" x="584" y="-984" font-family="Arial" font-size="10.00" fill="#0d1074">2699×</text>
</g>
<!-- 4090 -->
<g id="node15" class="node"><title>4090</title>
<polygon fill="#cfd806" stroke="#cfd806" points="710,-972 620,-972 620,-920 710,-920 710,-972"/>
<text text-anchor="middle" x="665" y="-960" font-family="Arial" font-size="10.00" fill="#ffffff">clock:214:usleep</text>
<text text-anchor="middle" x="665" y="-949" font-family="Arial" font-size="10.00" fill="#ffffff">73.94%</text>
<text text-anchor="middle" x="665" y="-938" font-family="Arial" font-size="10.00" fill="#ffffff">(0.06%)</text>
<text text-anchor="middle" x="665" y="-927" font-family="Arial" font-size="10.00" fill="#ffffff">2686×</text>
</g>
<!-- 403&#45;&gt;4090 -->
<g id="edge9" class="edge"><title>403&#45;&gt;4090</title>
<path fill="none" stroke="#cfd806" stroke-width="2.96" d="M607.284,-1011.93C616.397,-1001.68 627.046,-989.698 636.699,-978.839"/>
<polygon fill="#cfd806" stroke="#cfd806" stroke-width="2.96" points="639.094,-980.675 642.558,-972.248 634.594,-976.676 639.094,-980.675"/>
<text text-anchor="middle" x="652" y="-995" font-family="Arial" font-size="10.00" fill="#cfd806">73.94%</text>
<text text-anchor="middle" x="652" y="-984" font-family="Arial" font-size="10.00" fill="#cfd806">2686×</text>
</g>
<!-- 1891&#45;&gt;252 -->
<g id="edge31" class="edge"><title>1891&#45;&gt;252</title>
<path fill="none" stroke="#0d0f73" stroke-width="0.5" d="M544,-919.93C544,-908.712 544,-895.422 544,-883.798"/>
<polygon fill="#0d0f73" stroke="#0d0f73" stroke-width="0.5" points="545.225,-883.748 544,-880.248 542.775,-883.748 545.225,-883.748"/>
<text text-anchor="middle" x="558" y="-903" font-family="Arial" font-size="10.00" fill="#0d0f73">0.53%</text>
<text text-anchor="middle" x="558" y="-892" font-family="Arial" font-size="10.00" fill="#0d0f73">5503×</text>
</g>
<!-- 4657 -->
<g id="node41" class="node"><title>4657</title>
<polygon fill="#cfd806" stroke="#cfd806" points="710.25,-880 619.75,-880 619.75,-828 710.25,-828 710.25,-880"/>
<text text-anchor="middle" x="665" y="-868" font-family="Arial" font-size="10.00" fill="#ffffff">~:0:&lt;time.sleep&gt;</text>
<text text-anchor="middle" x="665" y="-857" font-family="Arial" font-size="10.00" fill="#ffffff">73.88%</text>
<text text-anchor="middle" x="665" y="-846" font-family="Arial" font-size="10.00" fill="#ffffff">(73.89%)</text>
<text text-anchor="middle" x="665" y="-835" font-family="Arial" font-size="10.00" fill="#ffffff">2686×</text>
</g>
<!-- 4090&#45;&gt;4657 -->
<g id="edge40" class="edge"><title>4090&#45;&gt;4657</title>
<path fill="none" stroke="#cfd806" stroke-width="2.96" d="M665,-919.93C665,-910.356 665,-899.273 665,-889.004"/>
<polygon fill="#cfd806" stroke="#cfd806" stroke-width="2.96" points="668.01,-888.848 665,-880.248 661.99,-888.848 668.01,-888.848"/>
<text text-anchor="middle" x="682" y="-903" font-family="Arial" font-size="10.00" fill="#cfd806">73.88%</text>
<text text-anchor="middle" x="682" y="-892" font-family="Arial" font-size="10.00" fill="#cfd806">2686×</text>
</g>
<!-- 428 -->
<g id="node16" class="node"><title>428</title>
<polygon fill="#0d0f74" stroke="#0d0f74" points="131.5,-788 26.5,-788 26.5,-736 131.5,-736 131.5,-788"/>
<text text-anchor="middle" x="79" y="-776" font-family="Arial" font-size="10.00" fill="#ffffff">urllib2:1139:do_open</text>
<text text-anchor="middle" x="79" y="-765" font-family="Arial" font-size="10.00" fill="#ffffff">0.61%</text>
<text text-anchor="middle" x="79" y="-754" font-family="Arial" font-size="10.00" fill="#ffffff">(0.00%)</text>
<text text-anchor="middle" x="79" y="-743" font-family="Arial" font-size="10.00" fill="#ffffff">1×</text>
</g>
<!-- 1784 -->
<g id="node17" class="node"><title>1784</title>
<polygon fill="#0d0f74" stroke="#0d0f74" points="127.25,-696 30.75,-696 30.75,-644 127.25,-644 127.25,-696"/>
<text text-anchor="middle" x="79" y="-684" font-family="Arial" font-size="10.00" fill="#ffffff">httplib:971:request</text>
<text text-anchor="middle" x="79" y="-673" font-family="Arial" font-size="10.00" fill="#ffffff">0.61%</text>
<text text-anchor="middle" x="79" y="-662" font-family="Arial" font-size="10.00" fill="#ffffff">(0.00%)</text>
<text text-anchor="middle" x="79" y="-651" font-family="Arial" font-size="10.00" fill="#ffffff">1×</text>
</g>
<!-- 428&#45;&gt;1784 -->
<g id="edge10" class="edge"><title>428&#45;&gt;1784</title>
<path fill="none" stroke="#0d0f74" stroke-width="0.5" d="M79,-735.93C79,-724.712 79,-711.422 79,-699.798"/>
<polygon fill="#0d0f74" stroke="#0d0f74" stroke-width="0.5" points="80.2251,-699.748 79,-696.248 77.7751,-699.748 80.2251,-699.748"/>
<text text-anchor="middle" x="93" y="-719" font-family="Arial" font-size="10.00" fill="#0d0f74">0.61%</text>
<text text-anchor="middle" x="93" y="-708" font-family="Arial" font-size="10.00" fill="#0d0f74">1×</text>
</g>
<!-- 2132 -->
<g id="node36" class="node"><title>2132</title>
<polygon fill="#0d0f74" stroke="#0d0f74" points="137,-604 9,-604 9,-552 137,-552 137,-604"/>
<text text-anchor="middle" x="73" y="-592" font-family="Arial" font-size="10.00" fill="#ffffff">httplib:992:_send_request</text>
<text text-anchor="middle" x="73" y="-581" font-family="Arial" font-size="10.00" fill="#ffffff">0.61%</text>
<text text-anchor="middle" x="73" y="-570" font-family="Arial" font-size="10.00" fill="#ffffff">(0.00%)</text>
<text text-anchor="middle" x="73" y="-559" font-family="Arial" font-size="10.00" fill="#ffffff">1×</text>
</g>
<!-- 1784&#45;&gt;2132 -->
<g id="edge30" class="edge"><title>1784&#45;&gt;2132</title>
<path fill="none" stroke="#0d0f74" stroke-width="0.5" d="M77.3287,-643.93C76.5808,-632.712 75.6948,-619.422 74.9199,-607.798"/>
<polygon fill="#0d0f74" stroke="#0d0f74" stroke-width="0.5" points="76.1384,-607.658 74.6832,-604.248 73.6938,-607.821 76.1384,-607.658"/>
<text text-anchor="middle" x="91" y="-627" font-family="Arial" font-size="10.00" fill="#0d0f74">0.61%</text>
<text text-anchor="middle" x="91" y="-616" font-family="Arial" font-size="10.00" fill="#0d0f74">1×</text>
</g>
<!-- 1581 -->
<g id="node35" class="node"><title>1581</title>
<polygon fill="#ddc905" stroke="#ddc905" points="481,-1248 327,-1248 327,-1196 481,-1196 481,-1248"/>
<text text-anchor="middle" x="404" y="-1236" font-family="Arial" font-size="10.00" fill="#ffffff">window_pygame:286:_mainloop</text>
<text text-anchor="middle" x="404" y="-1225" font-family="Arial" font-size="10.00" fill="#ffffff">77.33%</text>
<text text-anchor="middle" x="404" y="-1214" font-family="Arial" font-size="10.00" fill="#ffffff">(0.06%)</text>
<text text-anchor="middle" x="404" y="-1203" font-family="Arial" font-size="10.00" fill="#ffffff">2699×</text>
</g>
<!-- 1698&#45;&gt;1581 -->
<g id="edge29" class="edge"><title>1698&#45;&gt;1581</title>
<path fill="none" stroke="#ddc905" stroke-width="3.09" d="M398.228,-1287.93C399.071,-1278.45 400.045,-1267.5 400.95,-1257.32"/>
<polygon fill="#ddc905" stroke="#ddc905" stroke-width="3.09" points="404.044,-1257.29 401.756,-1248.25 397.909,-1256.74 404.044,-1257.29"/>
<text text-anchor="middle" x="418" y="-1271" font-family="Arial" font-size="10.00" fill="#ddc905">77.33%</text>
<text text-anchor="middle" x="418" y="-1260" font-family="Arial" font-size="10.00" fill="#ddc905">2699×</text>
</g>
<!-- 3548 -->
<g id="node20" class="node"><title>3548</title>
<polygon fill="#0d377f" stroke="#0d377f" points="317.25,-1248 194.75,-1248 194.75,-1196 317.25,-1196 317.25,-1248"/>
<text text-anchor="middle" x="256" y="-1236" font-family="Arial" font-size="10.00" fill="#ffffff">service:13:DeviceService</text>
<text text-anchor="middle" x="256" y="-1225" font-family="Arial" font-size="10.00" fill="#ffffff">9.34%</text>
<text text-anchor="middle" x="256" y="-1214" font-family="Arial" font-size="10.00" fill="#ffffff">(0.00%)</text>
<text text-anchor="middle" x="256" y="-1203" font-family="Arial" font-size="10.00" fill="#ffffff">1×</text>
</g>
<!-- 752&#45;&gt;3548 -->
<g id="edge12" class="edge"><title>752&#45;&gt;3548</title>
<path fill="none" stroke="#0d377f" stroke-width="0.5" d="M258.886,-1287.93C258.387,-1276.71 257.797,-1263.42 257.28,-1251.8"/>
<polygon fill="#0d377f" stroke="#0d377f" stroke-width="0.5" points="258.501,-1251.69 257.122,-1248.25 256.054,-1251.8 258.501,-1251.69"/>
<text text-anchor="middle" x="273" y="-1271" font-family="Arial" font-size="10.00" fill="#0d377f">9.34%</text>
<text text-anchor="middle" x="273" y="-1260" font-family="Arial" font-size="10.00" fill="#0d377f">1×</text>
</g>
<!-- 3548&#45;&gt;1468 -->
<g id="edge39" class="edge"><title>3548&#45;&gt;1468</title>
<path fill="none" stroke="#0d377f" stroke-width="0.5" d="M239.844,-1195.93C232.489,-1184.52 223.754,-1170.96 216.172,-1159.2"/>
<polygon fill="#0d377f" stroke="#0d377f" stroke-width="0.5" points="217.196,-1158.53 214.271,-1156.25 215.137,-1159.85 217.196,-1158.53"/>
<text text-anchor="middle" x="248" y="-1179" font-family="Arial" font-size="10.00" fill="#0d377f">9.34%</text>
<text text-anchor="middle" x="248" y="-1168" font-family="Arial" font-size="10.00" fill="#0d377f">1×</text>
</g>
<!-- 2537 -->
<g id="node25" class="node"><title>2537</title>
<polygon fill="#0d0f74" stroke="#0d0f74" points="127,-1064 37,-1064 37,-1012 127,-1012 127,-1064"/>
<text text-anchor="middle" x="82" y="-1052" font-family="Arial" font-size="10.00" fill="#ffffff">urllib2:414:_open</text>
<text text-anchor="middle" x="82" y="-1041" font-family="Arial" font-size="10.00" fill="#ffffff">0.61%</text>
<text text-anchor="middle" x="82" y="-1030" font-family="Arial" font-size="10.00" fill="#ffffff">(0.00%)</text>
<text text-anchor="middle" x="82" y="-1019" font-family="Arial" font-size="10.00" fill="#ffffff">1×</text>
</g>
<!-- 1030&#45;&gt;2537 -->
<g id="edge18" class="edge"><title>1030&#45;&gt;2537</title>
<path fill="none" stroke="#0d0f74" stroke-width="0.5" d="M84.1643,-1103.93C83.7904,-1092.71 83.3474,-1079.42 82.9599,-1067.8"/>
<polygon fill="#0d0f74" stroke="#0d0f74" stroke-width="0.5" points="84.1826,-1067.7 82.8416,-1064.25 81.734,-1067.79 84.1826,-1067.7"/>
<text text-anchor="middle" x="98" y="-1087" font-family="Arial" font-size="10.00" fill="#0d0f74">0.61%</text>
<text text-anchor="middle" x="98" y="-1076" font-family="Arial" font-size="10.00" fill="#0d0f74">1×</text>
</g>
<!-- 1193 -->
<g id="node23" class="node"><title>1193</title>
<polygon fill="#0c6e8c" stroke="#0c6e8c" points="308,-512 142,-512 142,-460 308,-460 308,-512"/>
<text text-anchor="middle" x="225" y="-500" font-family="Arial" font-size="10.00" fill="#ffffff">~:0:&lt;method &#39;read&#39; of &#39;file&#39; objects&gt;</text>
<text text-anchor="middle" x="225" y="-489" font-family="Arial" font-size="10.00" fill="#ffffff">19.21%</text>
<text text-anchor="middle" x="225" y="-478" font-family="Arial" font-size="10.00" fill="#ffffff">(19.21%)</text>
<text text-anchor="middle" x="225" y="-467" font-family="Arial" font-size="10.00" fill="#ffffff">26×</text>
</g>
<!-- 886&#45;&gt;1193 -->
<g id="edge15" class="edge"><title>886&#45;&gt;1193</title>
<path fill="none" stroke="#0c6e8c" stroke-width="0.77" d="M225,-551.93C225,-541.002 225,-528.108 225,-516.703"/>
<polygon fill="#0c6e8c" stroke="#0c6e8c" stroke-width="0.77" points="226.54,-516.648 225,-512.248 223.46,-516.648 226.54,-516.648"/>
<text text-anchor="middle" x="242" y="-535" font-family="Arial" font-size="10.00" fill="#0c6e8c">19.20%</text>
<text text-anchor="middle" x="242" y="-524" font-family="Arial" font-size="10.00" fill="#0c6e8c">18×</text>
</g>
<!-- 958 -->
<g id="node24" class="node"><title>958</title>
<polygon fill="#ff0000" stroke="#ff0000" points="369,-1616 277,-1616 277,-1564 369,-1564 369,-1616"/>
<text text-anchor="middle" x="323" y="-1604" font-family="Arial" font-size="10.00" fill="#ffffff">main:8:&lt;module&gt;</text>
<text text-anchor="middle" x="323" y="-1593" font-family="Arial" font-size="10.00" fill="#ffffff">100.00%</text>
<text text-anchor="middle" x="323" y="-1582" font-family="Arial" font-size="10.00" fill="#ffffff">(0.00%)</text>
<text text-anchor="middle" x="323" y="-1571" font-family="Arial" font-size="10.00" fill="#ffffff">1×</text>
</g>
<!-- 958&#45;&gt;217 -->
<g id="edge17" class="edge"><title>958&#45;&gt;217</title>
<path fill="none" stroke="#0c7e8f" stroke-width="0.87" d="M307.401,-1563.93C300.541,-1552.91 292.436,-1539.88 285.294,-1528.4"/>
<polygon fill="#0c7e8f" stroke="#0c7e8f" stroke-width="0.87" points="286.589,-1527.37 282.71,-1524.25 283.796,-1529.11 286.589,-1527.37"/>
<text text-anchor="middle" x="319" y="-1547" font-family="Arial" font-size="10.00" fill="#0c7e8f">21.75%</text>
<text text-anchor="middle" x="319" y="-1536" font-family="Arial" font-size="10.00" fill="#0c7e8f">1×</text>
</g>
<!-- 958&#45;&gt;273 -->
<g id="edge16" class="edge"><title>958&#45;&gt;273</title>
<path fill="none" stroke="#dec505" stroke-width="3.11" d="M335.535,-1563.93C340.419,-1554.16 346.088,-1542.82 351.309,-1532.38"/>
<polygon fill="#dec505" stroke="#dec505" stroke-width="3.11" points="354.195,-1533.5 355.376,-1524.25 348.686,-1530.74 354.195,-1533.5"/>
<text text-anchor="middle" x="368" y="-1547" font-family="Arial" font-size="10.00" fill="#dec505">77.84%</text>
<text text-anchor="middle" x="368" y="-1536" font-family="Arial" font-size="10.00" fill="#dec505">1×</text>
</g>
<!-- 1448 -->
<g id="node33" class="node"><title>1448</title>
<polygon fill="#0d0f74" stroke="#0d0f74" points="138.25,-972 25.75,-972 25.75,-920 138.25,-920 138.25,-972"/>
<text text-anchor="middle" x="82" y="-960" font-family="Arial" font-size="10.00" fill="#ffffff">urllib2:374:_call_chain</text>
<text text-anchor="middle" x="82" y="-949" font-family="Arial" font-size="10.00" fill="#ffffff">0.61%</text>
<text text-anchor="middle" x="82" y="-938" font-family="Arial" font-size="10.00" fill="#ffffff">(0.00%)</text>
<text text-anchor="middle" x="82" y="-927" font-family="Arial" font-size="10.00" fill="#ffffff">2×</text>
</g>
<!-- 2537&#45;&gt;1448 -->
<g id="edge36" class="edge"><title>2537&#45;&gt;1448</title>
<path fill="none" stroke="#0d0f74" stroke-width="0.5" d="M82,-1011.93C82,-1000.71 82,-987.422 82,-975.798"/>
<polygon fill="#0d0f74" stroke="#0d0f74" stroke-width="0.5" points="83.2251,-975.748 82,-972.248 80.7751,-975.748 83.2251,-975.748"/>
<text text-anchor="middle" x="96" y="-995" font-family="Arial" font-size="10.00" fill="#0d0f74">0.61%</text>
<text text-anchor="middle" x="96" y="-984" font-family="Arial" font-size="10.00" fill="#0d0f74">2×</text>
</g>
<!-- 1053 -->
<g id="node26" class="node"><title>1053</title>
<polygon fill="#0d0f74" stroke="#0d0f74" points="134.25,-420 11.75,-420 11.75,-368 134.25,-368 134.25,-420"/>
<text text-anchor="middle" x="73" y="-408" font-family="Arial" font-size="10.00" fill="#ffffff">httplib:814:_send_output</text>
<text text-anchor="middle" x="73" y="-397" font-family="Arial" font-size="10.00" fill="#ffffff">0.61%</text>
<text text-anchor="middle" x="73" y="-386" font-family="Arial" font-size="10.00" fill="#ffffff">(0.00%)</text>
<text text-anchor="middle" x="73" y="-375" font-family="Arial" font-size="10.00" fill="#ffffff">1×</text>
</g>
<!-- 3031 -->
<g id="node27" class="node"><title>3031</title>
<polygon fill="#0d0f74" stroke="#0d0f74" points="116,-328 30,-328 30,-276 116,-276 116,-328"/>
<text text-anchor="middle" x="73" y="-316" font-family="Arial" font-size="10.00" fill="#ffffff">httplib:787:send</text>
<text text-anchor="middle" x="73" y="-305" font-family="Arial" font-size="10.00" fill="#ffffff">0.61%</text>
<text text-anchor="middle" x="73" y="-294" font-family="Arial" font-size="10.00" fill="#ffffff">(0.00%)</text>
<text text-anchor="middle" x="73" y="-283" font-family="Arial" font-size="10.00" fill="#ffffff">1×</text>
</g>
<!-- 1053&#45;&gt;3031 -->
<g id="edge19" class="edge"><title>1053&#45;&gt;3031</title>
<path fill="none" stroke="#0d0f74" stroke-width="0.5" d="M73,-367.93C73,-356.712 73,-343.422 73,-331.798"/>
<polygon fill="#0d0f74" stroke="#0d0f74" stroke-width="0.5" points="74.2251,-331.748 73,-328.248 71.7751,-331.748 74.2251,-331.748"/>
<text text-anchor="middle" x="87" y="-351" font-family="Arial" font-size="10.00" fill="#0d0f74">0.61%</text>
<text text-anchor="middle" x="87" y="-340" font-family="Arial" font-size="10.00" fill="#0d0f74">1×</text>
</g>
<!-- 2107 -->
<g id="node39" class="node"><title>2107</title>
<polygon fill="#0d0f74" stroke="#0d0f74" points="122.25,-236 23.75,-236 23.75,-184 122.25,-184 122.25,-236"/>
<text text-anchor="middle" x="73" y="-224" font-family="Arial" font-size="10.00" fill="#ffffff">httplib:769:connect</text>
<text text-anchor="middle" x="73" y="-213" font-family="Arial" font-size="10.00" fill="#ffffff">0.61%</text>
<text text-anchor="middle" x="73" y="-202" font-family="Arial" font-size="10.00" fill="#ffffff">(0.00%)</text>
<text text-anchor="middle" x="73" y="-191" font-family="Arial" font-size="10.00" fill="#ffffff">1×</text>
</g>
<!-- 3031&#45;&gt;2107 -->
<g id="edge38" class="edge"><title>3031&#45;&gt;2107</title>
<path fill="none" stroke="#0d0f74" stroke-width="0.5" d="M73,-275.93C73,-264.712 73,-251.422 73,-239.798"/>
<polygon fill="#0d0f74" stroke="#0d0f74" stroke-width="0.5" points="74.2251,-239.748 73,-236.248 71.7751,-239.748 74.2251,-239.748"/>
<text text-anchor="middle" x="87" y="-259" font-family="Arial" font-size="10.00" fill="#0d0f74">0.61%</text>
<text text-anchor="middle" x="87" y="-248" font-family="Arial" font-size="10.00" fill="#0d0f74">1×</text>
</g>
<!-- 1086 -->
<g id="node28" class="node"><title>1086</title>
<polygon fill="#0d0f74" stroke="#0d0f74" points="755,-1064 633,-1064 633,-1012 755,-1012 755,-1064"/>
<text text-anchor="middle" x="694" y="-1052" font-family="Arial" font-size="10.00" fill="#ffffff">base:291:dispatch_input</text>
<text text-anchor="middle" x="694" y="-1041" font-family="Arial" font-size="10.00" fill="#ffffff">0.65%</text>
<text text-anchor="middle" x="694" y="-1030" font-family="Arial" font-size="10.00" fill="#ffffff">(0.26%)</text>
<text text-anchor="middle" x="694" y="-1019" font-family="Arial" font-size="10.00" fill="#ffffff">2699×</text>
</g>
<!-- 1087 -->
<g id="node29" class="node"><title>1087</title>
<polygon fill="#dccc05" stroke="#dccc05" points="445,-1156 371,-1156 371,-1104 445,-1104 445,-1156"/>
<text text-anchor="middle" x="408" y="-1144" font-family="Arial" font-size="10.00" fill="#ffffff">base:311:idle</text>
<text text-anchor="middle" x="408" y="-1133" font-family="Arial" font-size="10.00" fill="#ffffff">76.95%</text>
<text text-anchor="middle" x="408" y="-1122" font-family="Arial" font-size="10.00" fill="#ffffff">(0.25%)</text>
<text text-anchor="middle" x="408" y="-1111" font-family="Arial" font-size="10.00" fill="#ffffff">2699×</text>
</g>
<!-- 1087&#45;&gt;175 -->
<g id="edge20" class="edge"><title>1087&#45;&gt;175</title>
<path fill="none" stroke="#0d0f73" stroke-width="0.5" d="M403.265,-1103.93C401.146,-1092.71 398.635,-1079.42 396.44,-1067.8"/>
<polygon fill="#0d0f73" stroke="#0d0f73" stroke-width="0.5" points="397.622,-1067.46 395.769,-1064.25 395.215,-1067.91 397.622,-1067.46"/>
<text text-anchor="middle" x="416" y="-1087" font-family="Arial" font-size="10.00" fill="#0d0f73">0.49%</text>
<text text-anchor="middle" x="416" y="-1076" font-family="Arial" font-size="10.00" fill="#0d0f73">128×</text>
</g>
<!-- 1087&#45;&gt;403 -->
<g id="edge21" class="edge"><title>1087&#45;&gt;403</title>
<path fill="none" stroke="#dad806" stroke-width="3.01" d="M445.003,-1111.67C469.972,-1099.81 503.787,-1083.42 538.736,-1065.14"/>
<polygon fill="#dad806" stroke="#dad806" stroke-width="3.01" points="540.4,-1067.7 546.682,-1060.96 537.565,-1062.31 540.4,-1067.7"/>
<text text-anchor="middle" x="541" y="-1087" font-family="Arial" font-size="10.00" fill="#dad806">75.17%</text>
<text text-anchor="middle" x="541" y="-1076" font-family="Arial" font-size="10.00" fill="#dad806">2699×</text>
</g>
<!-- 1087&#45;&gt;1086 -->
<g id="edge22" class="edge"><title>1087&#45;&gt;1086</title>
<path fill="none" stroke="#0d0f74" stroke-width="0.5" d="M445.029,-1122.61C476.109,-1116.79 521.476,-1107.25 560,-1095 585.649,-1086.84 613.208,-1075.75 636.623,-1065.59"/>
<polygon fill="#0d0f74" stroke="#0d0f74" stroke-width="0.5" points="637.328,-1066.62 640.047,-1064.1 636.349,-1064.37 637.328,-1066.62"/>
<text text-anchor="middle" x="631" y="-1087" font-family="Arial" font-size="10.00" fill="#0d0f74">0.65%</text>
<text text-anchor="middle" x="631" y="-1076" font-family="Arial" font-size="10.00" fill="#0d0f74">2699×</text>
</g>
<!-- 1336 -->
<g id="node30" class="node"><title>1336</title>
<polygon fill="#0c6e8c" stroke="#0c6e8c" points="246,-972 166,-972 166,-920 246,-920 246,-972"/>
<text text-anchor="middle" x="206" y="-960" font-family="Arial" font-size="10.00" fill="#ffffff">facades:385:id</text>
<text text-anchor="middle" x="206" y="-949" font-family="Arial" font-size="10.00" fill="#ffffff">19.24%</text>
<text text-anchor="middle" x="206" y="-938" font-family="Arial" font-size="10.00" fill="#ffffff">(0.00%)</text>
<text text-anchor="middle" x="206" y="-927" font-family="Arial" font-size="10.00" fill="#ffffff">2×</text>
</g>
<!-- 1421 -->
<g id="node31" class="node"><title>1421</title>
<polygon fill="#0c6e8c" stroke="#0c6e8c" points="258,-880 154,-880 154,-828 258,-828 258,-880"/>
<text text-anchor="middle" x="206" y="-868" font-family="Arial" font-size="10.00" fill="#ffffff">facades:391:get_uid</text>
<text text-anchor="middle" x="206" y="-857" font-family="Arial" font-size="10.00" fill="#ffffff">19.24%</text>
<text text-anchor="middle" x="206" y="-846" font-family="Arial" font-size="10.00" fill="#ffffff">(0.00%)</text>
<text text-anchor="middle" x="206" y="-835" font-family="Arial" font-size="10.00" fill="#ffffff">2×</text>
</g>
<!-- 1336&#45;&gt;1421 -->
<g id="edge23" class="edge"><title>1336&#45;&gt;1421</title>
<path fill="none" stroke="#0c6e8c" stroke-width="0.77" d="M206,-919.93C206,-909.002 206,-896.108 206,-884.703"/>
<polygon fill="#0c6e8c" stroke="#0c6e8c" stroke-width="0.77" points="207.54,-884.648 206,-880.248 204.46,-884.648 207.54,-884.648"/>
<text text-anchor="middle" x="223" y="-903" font-family="Arial" font-size="10.00" fill="#0c6e8c">19.24%</text>
<text text-anchor="middle" x="223" y="-892" font-family="Arial" font-size="10.00" fill="#0c6e8c">2×</text>
</g>
<!-- 1421&#45;&gt;118 -->
<g id="edge25" class="edge"><title>1421&#45;&gt;118</title>
<path fill="none" stroke="#0c6e8c" stroke-width="0.77" d="M206.836,-827.93C207.2,-817.002 207.63,-804.108 208.01,-792.703"/>
<polygon fill="#0c6e8c" stroke="#0c6e8c" stroke-width="0.77" points="209.551,-792.697 208.158,-788.248 206.473,-792.594 209.551,-792.697"/>
<text text-anchor="middle" x="225" y="-811" font-family="Arial" font-size="10.00" fill="#0c6e8c">19.24%</text>
<text text-anchor="middle" x="225" y="-800" font-family="Arial" font-size="10.00" fill="#0c6e8c">2×</text>
</g>
<!-- 1337&#45;&gt;1336 -->
<g id="edge24" class="edge"><title>1337&#45;&gt;1336</title>
<path fill="none" stroke="#0c6e8c" stroke-width="0.77" d="M200.228,-1011.93C201.2,-1001 202.346,-988.108 203.36,-976.703"/>
<polygon fill="#0c6e8c" stroke="#0c6e8c" stroke-width="0.77" points="204.9,-976.767 203.756,-972.248 201.832,-976.494 204.9,-976.767"/>
<text text-anchor="middle" x="220" y="-995" font-family="Arial" font-size="10.00" fill="#0c6e8c">19.24%</text>
<text text-anchor="middle" x="220" y="-984" font-family="Arial" font-size="10.00" fill="#0c6e8c">2×</text>
</g>
<!-- 4335 -->
<g id="node34" class="node"><title>4335</title>
<polygon fill="#0d0f74" stroke="#0d0f74" points="137.5,-880 26.5,-880 26.5,-828 137.5,-828 137.5,-880"/>
<text text-anchor="middle" x="82" y="-868" font-family="Arial" font-size="10.00" fill="#ffffff">urllib2:1213:http_open</text>
<text text-anchor="middle" x="82" y="-857" font-family="Arial" font-size="10.00" fill="#ffffff">0.61%</text>
<text text-anchor="middle" x="82" y="-846" font-family="Arial" font-size="10.00" fill="#ffffff">(0.00%)</text>
<text text-anchor="middle" x="82" y="-835" font-family="Arial" font-size="10.00" fill="#ffffff">1×</text>
</g>
<!-- 1448&#45;&gt;4335 -->
<g id="edge26" class="edge"><title>1448&#45;&gt;4335</title>
<path fill="none" stroke="#0d0f74" stroke-width="0.5" d="M82,-919.93C82,-908.712 82,-895.422 82,-883.798"/>
<polygon fill="#0d0f74" stroke="#0d0f74" stroke-width="0.5" points="83.2251,-883.748 82,-880.248 80.7751,-883.748 83.2251,-883.748"/>
<text text-anchor="middle" x="96" y="-903" font-family="Arial" font-size="10.00" fill="#0d0f74">0.61%</text>
<text text-anchor="middle" x="96" y="-892" font-family="Arial" font-size="10.00" fill="#0d0f74">1×</text>
</g>
<!-- 4335&#45;&gt;428 -->
<g id="edge41" class="edge"><title>4335&#45;&gt;428</title>
<path fill="none" stroke="#0d0f74" stroke-width="0.5" d="M81.1643,-827.93C80.7904,-816.712 80.3474,-803.422 79.9599,-791.798"/>
<polygon fill="#0d0f74" stroke="#0d0f74" stroke-width="0.5" points="81.1826,-791.705 79.8416,-788.248 78.734,-791.787 81.1826,-791.705"/>
<text text-anchor="middle" x="95" y="-811" font-family="Arial" font-size="10.00" fill="#0d0f74">0.61%</text>
<text text-anchor="middle" x="95" y="-800" font-family="Arial" font-size="10.00" fill="#0d0f74">1×</text>
</g>
<!-- 1581&#45;&gt;1087 -->
<g id="edge28" class="edge"><title>1581&#45;&gt;1087</title>
<path fill="none" stroke="#dccc05" stroke-width="3.08" d="M405.114,-1195.93C405.535,-1186.45 406.022,-1175.5 406.475,-1165.32"/>
<polygon fill="#dccc05" stroke="#dccc05" stroke-width="3.08" points="409.564,-1165.18 406.878,-1156.25 403.41,-1164.9 409.564,-1165.18"/>
<text text-anchor="middle" x="424" y="-1179" font-family="Arial" font-size="10.00" fill="#dccc05">76.95%</text>
<text text-anchor="middle" x="424" y="-1168" font-family="Arial" font-size="10.00" fill="#dccc05">2699×</text>
</g>
<!-- 2372 -->
<g id="node40" class="node"><title>2372</title>
<polygon fill="#0d0f74" stroke="#0d0f74" points="130.25,-512 15.75,-512 15.75,-460 130.25,-460 130.25,-512"/>
<text text-anchor="middle" x="73" y="-500" font-family="Arial" font-size="10.00" fill="#ffffff">httplib:956:endheaders</text>
<text text-anchor="middle" x="73" y="-489" font-family="Arial" font-size="10.00" fill="#ffffff">0.61%</text>
<text text-anchor="middle" x="73" y="-478" font-family="Arial" font-size="10.00" fill="#ffffff">(0.00%)</text>
<text text-anchor="middle" x="73" y="-467" font-family="Arial" font-size="10.00" fill="#ffffff">1×</text>
</g>
<!-- 2132&#45;&gt;2372 -->
<g id="edge34" class="edge"><title>2132&#45;&gt;2372</title>
<path fill="none" stroke="#0d0f74" stroke-width="0.5" d="M73,-551.93C73,-540.712 73,-527.422 73,-515.798"/>
<polygon fill="#0d0f74" stroke="#0d0f74" stroke-width="0.5" points="74.2251,-515.748 73,-512.248 71.7751,-515.748 74.2251,-515.748"/>
<text text-anchor="middle" x="87" y="-535" font-family="Arial" font-size="10.00" fill="#0d0f74">0.61%</text>
<text text-anchor="middle" x="87" y="-524" font-family="Arial" font-size="10.00" fill="#0d0f74">1×</text>
</g>
<!-- 2106 -->
<g id="node37" class="node"><title>2106</title>
<polygon fill="#0d0f74" stroke="#0d0f74" points="146.25,-144 -0.25,-144 -0.25,-92 146.25,-92 146.25,-144"/>
<text text-anchor="middle" x="73" y="-132" font-family="Arial" font-size="10.00" fill="#ffffff">socket:537:create_connection</text>
<text text-anchor="middle" x="73" y="-121" font-family="Arial" font-size="10.00" fill="#ffffff">0.61%</text>
<text text-anchor="middle" x="73" y="-110" font-family="Arial" font-size="10.00" fill="#ffffff">(0.00%)</text>
<text text-anchor="middle" x="73" y="-99" font-family="Arial" font-size="10.00" fill="#ffffff">1×</text>
</g>
<!-- 4369 -->
<g id="node38" class="node"><title>4369</title>
<polygon fill="#0d0f74" stroke="#0d0f74" points="138.25,-52 7.75,-52 7.75,-0 138.25,-0 138.25,-52"/>
<text text-anchor="middle" x="73" y="-40" font-family="Arial" font-size="10.00" fill="#ffffff">~:0:&lt;_socket.getaddrinfo&gt;</text>
<text text-anchor="middle" x="73" y="-29" font-family="Arial" font-size="10.00" fill="#ffffff">0.61%</text>
<text text-anchor="middle" x="73" y="-18" font-family="Arial" font-size="10.00" fill="#ffffff">(0.61%)</text>
<text text-anchor="middle" x="73" y="-7" font-family="Arial" font-size="10.00" fill="#ffffff">1×</text>
</g>
<!-- 2106&#45;&gt;4369 -->
<g id="edge32" class="edge"><title>2106&#45;&gt;4369</title>
<path fill="none" stroke="#0d0f74" stroke-width="0.5" d="M73,-91.93C73,-80.7116 73,-67.4223 73,-55.7978"/>
<polygon fill="#0d0f74" stroke="#0d0f74" stroke-width="0.5" points="74.2251,-55.7477 73,-52.2477 71.7751,-55.7478 74.2251,-55.7477"/>
<text text-anchor="middle" x="87" y="-75" font-family="Arial" font-size="10.00" fill="#0d0f74">0.61%</text>
<text text-anchor="middle" x="87" y="-64" font-family="Arial" font-size="10.00" fill="#0d0f74">1×</text>
</g>
<!-- 2107&#45;&gt;2106 -->
<g id="edge33" class="edge"><title>2107&#45;&gt;2106</title>
<path fill="none" stroke="#0d0f74" stroke-width="0.5" d="M73,-183.93C73,-172.712 73,-159.422 73,-147.798"/>
<polygon fill="#0d0f74" stroke="#0d0f74" stroke-width="0.5" points="74.2251,-147.748 73,-144.248 71.7751,-147.748 74.2251,-147.748"/>
<text text-anchor="middle" x="87" y="-167" font-family="Arial" font-size="10.00" fill="#0d0f74">0.61%</text>
<text text-anchor="middle" x="87" y="-156" font-family="Arial" font-size="10.00" fill="#0d0f74">1×</text>
</g>
<!-- 2372&#45;&gt;1053 -->
<g id="edge35" class="edge"><title>2372&#45;&gt;1053</title>
<path fill="none" stroke="#0d0f74" stroke-width="0.5" d="M73,-459.93C73,-448.712 73,-435.422 73,-423.798"/>
<polygon fill="#0d0f74" stroke="#0d0f74" stroke-width="0.5" points="74.2251,-423.748 73,-420.248 71.7751,-423.748 74.2251,-423.748"/>
<text text-anchor="middle" x="87" y="-443" font-family="Arial" font-size="10.00" fill="#0d0f74">0.61%</text>
<text text-anchor="middle" x="87" y="-432" font-family="Arial" font-size="10.00" fill="#0d0f74">1×</text>
</g>
</g>
</svg>
