<?xml version="1.0" encoding="UTF-8" standalone="no"?>
<!DOCTYPE svg PUBLIC "-//W3C//DTD SVG 1.1//EN"
 "http://www.w3.org/Graphics/SVG/1.1/DTD/svg11.dtd">
<!-- Generated by graphviz version 2.36.0 (20140111.2315)
 -->
<!-- Title: %3 Pages: 1 -->
<svg width="802pt" height="1194pt"
 viewBox="0.00 0.00 802.00 1194.00" xmlns="http://www.w3.org/2000/svg" xmlns:xlink="http://www.w3.org/1999/xlink">
<g id="graph0" class="graph" transform="scale(1 1) rotate(0) translate(4 1190)">
<title>%3</title>
<polygon fill="white" stroke="none" points="-4,4 -4,-1190 798,-1190 798,4 -4,4"/>
<!-- 96 -->
<g id="node1" class="node"><title>96</title>
<polygon fill="#0d1575" stroke="#0d1575" points="268,-849 142,-849 142,-797 268,-797 268,-849"/>
<text text-anchor="middle" x="205" y="-837" font-family="Arial" font-size="10.00" fill="#ffffff">configuration:8:&lt;module&gt;</text>
<text text-anchor="middle" x="205" y="-826" font-family="Arial" font-size="10.00" fill="#ffffff">1.99%</text>
<text text-anchor="middle" x="205" y="-815" font-family="Arial" font-size="10.00" fill="#ffffff">(0.00%)</text>
<text text-anchor="middle" x="205" y="-804" font-family="Arial" font-size="10.00" fill="#ffffff">1×</text>
</g>
<!-- 2845 -->
<g id="node2" class="node"><title>2845</title>
<polygon fill="#0d1c77" stroke="#0d1c77" points="254.25,-696 133.75,-696 133.75,-644 254.25,-644 254.25,-696"/>
<text text-anchor="middle" x="194" y="-684" font-family="Arial" font-size="10.00" fill="#ffffff">utils:78:__getattribute__</text>
<text text-anchor="middle" x="194" y="-673" font-family="Arial" font-size="10.00" fill="#ffffff">3.50%</text>
<text text-anchor="middle" x="194" y="-662" font-family="Arial" font-size="10.00" fill="#ffffff">(0.00%)</text>
<text text-anchor="middle" x="194" y="-651" font-family="Arial" font-size="10.00" fill="#ffffff">2×</text>
</g>
<!-- 96&#45;&gt;2845 -->
<g id="edge1" class="edge"><title>96&#45;&gt;2845</title>
<path fill="none" stroke="#0d1475" stroke-width="0.5" d="M200.172,-796.802C199.718,-793.843 199.312,-790.86 199,-788 195.734,-758.072 194.574,-723.62 194.175,-699.892"/>
<polygon fill="#0d1475" stroke="#0d1475" stroke-width="0.5" points="195.397,-699.658 194.118,-696.178 192.947,-699.697 195.397,-699.658"/>
<text text-anchor="middle" x="213" y="-765" font-family="Arial" font-size="10.00" fill="#0d1475">1.71%</text>
<text text-anchor="middle" x="213" y="-754" font-family="Arial" font-size="10.00" fill="#0d1475">1×</text>
</g>
<!-- 2827 -->
<g id="node28" class="node"><title>2827</title>
<polygon fill="#0d1c77" stroke="#0d1c77" points="220,-604 146,-604 146,-552 220,-552 220,-604"/>
<text text-anchor="middle" x="183" y="-592" font-family="Arial" font-size="10.00" fill="#ffffff">~:0:&lt;getattr&gt;</text>
<text text-anchor="middle" x="183" y="-581" font-family="Arial" font-size="10.00" fill="#ffffff">3.55%</text>
<text text-anchor="middle" x="183" y="-570" font-family="Arial" font-size="10.00" fill="#ffffff">(0.05%)</text>
<text text-anchor="middle" x="183" y="-559" font-family="Arial" font-size="10.00" fill="#ffffff">118589×</text>
</g>
<!-- 2845&#45;&gt;2827 -->
<g id="edge21" class="edge"><title>2845&#45;&gt;2827</title>
<path fill="none" stroke="#0d1c77" stroke-width="0.5" d="M190.936,-643.93C189.565,-632.712 187.941,-619.422 186.52,-607.798"/>
<polygon fill="#0d1c77" stroke="#0d1c77" stroke-width="0.5" points="187.726,-607.573 186.086,-604.248 185.295,-607.871 187.726,-607.573"/>
<text text-anchor="middle" x="204" y="-627" font-family="Arial" font-size="10.00" fill="#0d1c77">3.50%</text>
<text text-anchor="middle" x="204" y="-616" font-family="Arial" font-size="10.00" fill="#0d1c77">2×</text>
</g>
<!-- 103 -->
<g id="node3" class="node"><title>103</title>
<polygon fill="#0d1475" stroke="#0d1475" points="683.25,-236 606.75,-236 606.75,-184 683.25,-184 683.25,-236"/>
<text text-anchor="middle" x="645" y="-224" font-family="Arial" font-size="10.00" fill="#ffffff">clock:287:tick</text>
<text text-anchor="middle" x="645" y="-213" font-family="Arial" font-size="10.00" fill="#ffffff">1.77%</text>
<text text-anchor="middle" x="645" y="-202" font-family="Arial" font-size="10.00" fill="#ffffff">(0.22%)</text>
<text text-anchor="middle" x="645" y="-191" font-family="Arial" font-size="10.00" fill="#ffffff">68321×</text>
</g>
<!-- 582 -->
<g id="node4" class="node"><title>582</title>
<polygon fill="#0d0f74" stroke="#0d0f74" points="723,-144 597,-144 597,-92 723,-92 723,-144"/>
<text text-anchor="middle" x="660" y="-132" font-family="Arial" font-size="10.00" fill="#ffffff">support:187:reactor_work</text>
<text text-anchor="middle" x="660" y="-121" font-family="Arial" font-size="10.00" fill="#ffffff">0.61%</text>
<text text-anchor="middle" x="660" y="-110" font-family="Arial" font-size="10.00" fill="#ffffff">(0.10%)</text>
<text text-anchor="middle" x="660" y="-99" font-family="Arial" font-size="10.00" fill="#ffffff">21160×</text>
</g>
<!-- 103&#45;&gt;582 -->
<g id="edge2" class="edge"><title>103&#45;&gt;582</title>
<path fill="none" stroke="#0d0f74" stroke-width="0.5" d="M649.178,-183.93C651.048,-172.712 653.263,-159.422 655.2,-147.798"/>
<polygon fill="#0d0f74" stroke="#0d0f74" stroke-width="0.5" points="656.425,-147.902 655.792,-144.248 654.008,-147.499 656.425,-147.902"/>
<text text-anchor="middle" x="671.5" y="-167" font-family="Arial" font-size="10.00" fill="#0d0f74">0.61%</text>
<text text-anchor="middle" x="671.5" y="-156" font-family="Arial" font-size="10.00" fill="#0d0f74">21160×</text>
</g>
<!-- 107 -->
<g id="node5" class="node"><title>107</title>
<polygon fill="#0d1b77" stroke="#0d1b77" points="576.25,-420 283.75,-420 283.75,-368 576.25,-368 576.25,-420"/>
<text text-anchor="middle" x="430" y="-408" font-family="Arial" font-size="10.00" fill="#ffffff">~:0:&lt;method &#39;dispatch&#39; of &#39;kivy._event.EventDispatcher&#39; objects&gt;</text>
<text text-anchor="middle" x="430" y="-397" font-family="Arial" font-size="10.00" fill="#ffffff">3.40%</text>
<text text-anchor="middle" x="430" y="-386" font-family="Arial" font-size="10.00" fill="#ffffff">(0.03%)</text>
<text text-anchor="middle" x="430" y="-375" font-family="Arial" font-size="10.00" fill="#ffffff">7080×</text>
</g>
<!-- 1258 -->
<g id="node6" class="node"><title>1258</title>
<polygon fill="#0d1977" stroke="#0d1977" points="484,-328 376,-328 376,-276 484,-276 484,-328"/>
<text text-anchor="middle" x="430" y="-316" font-family="Arial" font-size="10.00" fill="#ffffff">__init__:630:on_draw</text>
<text text-anchor="middle" x="430" y="-305" font-family="Arial" font-size="10.00" fill="#ffffff">2.99%</text>
<text text-anchor="middle" x="430" y="-294" font-family="Arial" font-size="10.00" fill="#ffffff">(0.01%)</text>
<text text-anchor="middle" x="430" y="-283" font-family="Arial" font-size="10.00" fill="#ffffff">841×</text>
</g>
<!-- 107&#45;&gt;1258 -->
<g id="edge3" class="edge"><title>107&#45;&gt;1258</title>
<path fill="none" stroke="#0d1977" stroke-width="0.5" d="M430,-367.93C430,-356.712 430,-343.422 430,-331.798"/>
<polygon fill="#0d1977" stroke="#0d1977" stroke-width="0.5" points="431.225,-331.748 430,-328.248 428.775,-331.748 431.225,-331.748"/>
<text text-anchor="middle" x="444" y="-351" font-family="Arial" font-size="10.00" fill="#0d1977">2.99%</text>
<text text-anchor="middle" x="444" y="-340" font-family="Arial" font-size="10.00" fill="#0d1977">841×</text>
</g>
<!-- 1257 -->
<g id="node23" class="node"><title>1257</title>
<polygon fill="#0d0f73" stroke="#0d0f73" points="464.25,-236 165.75,-236 165.75,-184 464.25,-184 464.25,-236"/>
<text text-anchor="middle" x="315" y="-224" font-family="Arial" font-size="10.00" fill="#ffffff">~:0:&lt;method &#39;draw&#39; of &#39;kivy.graphics.instructions.Canvas&#39; objects&gt;</text>
<text text-anchor="middle" x="315" y="-213" font-family="Arial" font-size="10.00" fill="#ffffff">0.56%</text>
<text text-anchor="middle" x="315" y="-202" font-family="Arial" font-size="10.00" fill="#ffffff">(0.55%)</text>
<text text-anchor="middle" x="315" y="-191" font-family="Arial" font-size="10.00" fill="#ffffff">841×</text>
</g>
<!-- 1258&#45;&gt;1257 -->
<g id="edge14" class="edge"><title>1258&#45;&gt;1257</title>
<path fill="none" stroke="#0d0f73" stroke-width="0.5" d="M397.966,-275.93C383.137,-264.325 365.476,-250.503 350.268,-238.601"/>
<polygon fill="#0d0f73" stroke="#0d0f73" stroke-width="0.5" points="350.772,-237.44 347.261,-236.248 349.262,-239.37 350.772,-237.44"/>
<text text-anchor="middle" x="401" y="-259" font-family="Arial" font-size="10.00" fill="#0d0f73">0.56%</text>
<text text-anchor="middle" x="401" y="-248" font-family="Arial" font-size="10.00" fill="#0d0f73">841×</text>
</g>
<!-- 2585 -->
<g id="node24" class="node"><title>2585</title>
<polygon fill="#0d1776" stroke="#0d1776" points="566.25,-236 473.75,-236 473.75,-184 566.25,-184 566.25,-236"/>
<text text-anchor="middle" x="520" y="-224" font-family="Arial" font-size="10.00" fill="#ffffff">__init__:591:clear</text>
<text text-anchor="middle" x="520" y="-213" font-family="Arial" font-size="10.00" fill="#ffffff">2.43%</text>
<text text-anchor="middle" x="520" y="-202" font-family="Arial" font-size="10.00" fill="#ffffff">(0.02%)</text>
<text text-anchor="middle" x="520" y="-191" font-family="Arial" font-size="10.00" fill="#ffffff">841×</text>
</g>
<!-- 1258&#45;&gt;2585 -->
<g id="edge15" class="edge"><title>1258&#45;&gt;2585</title>
<path fill="none" stroke="#0d1776" stroke-width="0.5" d="M455.07,-275.93C466.579,-264.421 480.266,-250.734 492.101,-238.899"/>
<polygon fill="#0d1776" stroke="#0d1776" stroke-width="0.5" points="493.144,-239.589 494.752,-236.248 491.411,-237.856 493.144,-239.589"/>
<text text-anchor="middle" x="500" y="-259" font-family="Arial" font-size="10.00" fill="#0d1776">2.43%</text>
<text text-anchor="middle" x="500" y="-248" font-family="Arial" font-size="10.00" fill="#0d1776">841×</text>
</g>
<!-- 275 -->
<g id="node7" class="node"><title>275</title>
<polygon fill="#0d1475" stroke="#0d1475" points="343.25,-910 242.75,-910 242.75,-858 343.25,-858 343.25,-910"/>
<text text-anchor="middle" x="293" y="-898" font-family="Arial" font-size="10.00" fill="#ffffff">service:5:&lt;module&gt;</text>
<text text-anchor="middle" x="293" y="-887" font-family="Arial" font-size="10.00" fill="#ffffff">1.80%</text>
<text text-anchor="middle" x="293" y="-876" font-family="Arial" font-size="10.00" fill="#ffffff">(0.00%)</text>
<text text-anchor="middle" x="293" y="-865" font-family="Arial" font-size="10.00" fill="#ffffff">1×</text>
</g>
<!-- 3719 -->
<g id="node8" class="node"><title>3719</title>
<polygon fill="#0d1475" stroke="#0d1475" points="354.25,-788 231.75,-788 231.75,-736 354.25,-736 354.25,-788"/>
<text text-anchor="middle" x="293" y="-776" font-family="Arial" font-size="10.00" fill="#ffffff">service:13:DeviceService</text>
<text text-anchor="middle" x="293" y="-765" font-family="Arial" font-size="10.00" fill="#ffffff">1.80%</text>
<text text-anchor="middle" x="293" y="-754" font-family="Arial" font-size="10.00" fill="#ffffff">(0.00%)</text>
<text text-anchor="middle" x="293" y="-743" font-family="Arial" font-size="10.00" fill="#ffffff">1×</text>
</g>
<!-- 275&#45;&gt;3719 -->
<g id="edge4" class="edge"><title>275&#45;&gt;3719</title>
<path fill="none" stroke="#0d1475" stroke-width="0.5" d="M293,-857.844C293,-838.644 293,-812.158 293,-792.054"/>
<polygon fill="#0d1475" stroke="#0d1475" stroke-width="0.5" points="294.225,-791.623 293,-788.123 291.775,-791.623 294.225,-791.623"/>
<text text-anchor="middle" x="307" y="-826" font-family="Arial" font-size="10.00" fill="#0d1475">1.80%</text>
<text text-anchor="middle" x="307" y="-815" font-family="Arial" font-size="10.00" fill="#0d1475">1×</text>
</g>
<!-- 3719&#45;&gt;2845 -->
<g id="edge31" class="edge"><title>3719&#45;&gt;2845</title>
<path fill="none" stroke="#0d1475" stroke-width="0.5" d="M265.423,-735.93C252.764,-724.421 237.707,-710.734 224.689,-698.899"/>
<polygon fill="#0d1475" stroke="#0d1475" stroke-width="0.5" points="225.186,-697.696 221.772,-696.248 223.538,-699.509 225.186,-697.696"/>
<text text-anchor="middle" x="270" y="-719" font-family="Arial" font-size="10.00" fill="#0d1475">1.80%</text>
<text text-anchor="middle" x="270" y="-708" font-family="Arial" font-size="10.00" fill="#0d1475">1×</text>
</g>
<!-- 276 -->
<g id="node9" class="node"><title>276</title>
<polygon fill="#0d1e78" stroke="#0d1e78" points="346.25,-1002 239.75,-1002 239.75,-950 346.25,-950 346.25,-1002"/>
<text text-anchor="middle" x="293" y="-990" font-family="Arial" font-size="10.00" fill="#ffffff">services:5:&lt;module&gt;</text>
<text text-anchor="middle" x="293" y="-979" font-family="Arial" font-size="10.00" fill="#ffffff">4.09%</text>
<text text-anchor="middle" x="293" y="-968" font-family="Arial" font-size="10.00" fill="#ffffff">(0.00%)</text>
<text text-anchor="middle" x="293" y="-957" font-family="Arial" font-size="10.00" fill="#ffffff">1×</text>
</g>
<!-- 276&#45;&gt;96 -->
<g id="edge5" class="edge"><title>276&#45;&gt;96</title>
<path fill="none" stroke="#0d1575" stroke-width="0.5" d="M270.594,-949.857C268.014,-946.888 265.437,-943.888 263,-941 251.586,-927.472 246.834,-925.338 238,-910 227.525,-891.811 219.116,-869.667 213.409,-852.405"/>
<polygon fill="#0d1575" stroke="#0d1575" stroke-width="0.5" points="214.555,-851.967 212.304,-849.02 212.226,-852.728 214.555,-851.967"/>
<text text-anchor="middle" x="277" y="-933" font-family="Arial" font-size="10.00" fill="#0d1575">1.99%</text>
<text text-anchor="middle" x="277" y="-922" font-family="Arial" font-size="10.00" fill="#0d1575">1×</text>
</g>
<!-- 276&#45;&gt;275 -->
<g id="edge6" class="edge"><title>276&#45;&gt;275</title>
<path fill="none" stroke="#0d1475" stroke-width="0.5" d="M293,-949.93C293,-938.712 293,-925.422 293,-913.798"/>
<polygon fill="#0d1475" stroke="#0d1475" stroke-width="0.5" points="294.225,-913.748 293,-910.248 291.775,-913.748 294.225,-913.748"/>
<text text-anchor="middle" x="307" y="-933" font-family="Arial" font-size="10.00" fill="#0d1475">1.80%</text>
<text text-anchor="middle" x="307" y="-922" font-family="Arial" font-size="10.00" fill="#0d1475">1×</text>
</g>
<!-- 331 -->
<g id="node10" class="node"><title>331</title>
<polygon fill="#0d1c77" stroke="#0d1c77" points="161.5,-144 4.5,-144 4.5,-92 161.5,-92 161.5,-144"/>
<text text-anchor="middle" x="83" y="-132" font-family="Arial" font-size="10.00" fill="#ffffff">subprocess:473:_eintr_retry_call</text>
<text text-anchor="middle" x="83" y="-121" font-family="Arial" font-size="10.00" fill="#ffffff">3.55%</text>
<text text-anchor="middle" x="83" y="-110" font-family="Arial" font-size="10.00" fill="#ffffff">(0.00%)</text>
<text text-anchor="middle" x="83" y="-99" font-family="Arial" font-size="10.00" fill="#ffffff">56×</text>
</g>
<!-- 4203 -->
<g id="node11" class="node"><title>4203</title>
<polygon fill="#0d1c77" stroke="#0d1c77" points="166,-52 0,-52 0,-0 166,-0 166,-52"/>
<text text-anchor="middle" x="83" y="-40" font-family="Arial" font-size="10.00" fill="#ffffff">~:0:&lt;method &#39;read&#39; of &#39;file&#39; objects&gt;</text>
<text text-anchor="middle" x="83" y="-29" font-family="Arial" font-size="10.00" fill="#ffffff">3.50%</text>
<text text-anchor="middle" x="83" y="-18" font-family="Arial" font-size="10.00" fill="#ffffff">(3.50%)</text>
<text text-anchor="middle" x="83" y="-7" font-family="Arial" font-size="10.00" fill="#ffffff">33×</text>
</g>
<!-- 331&#45;&gt;4203 -->
<g id="edge7" class="edge"><title>331&#45;&gt;4203</title>
<path fill="none" stroke="#0d1c77" stroke-width="0.5" d="M83,-91.93C83,-80.7116 83,-67.4223 83,-55.7978"/>
<polygon fill="#0d1c77" stroke="#0d1c77" stroke-width="0.5" points="84.2251,-55.7477 83,-52.2477 81.7751,-55.7478 84.2251,-55.7477"/>
<text text-anchor="middle" x="97" y="-75" font-family="Arial" font-size="10.00" fill="#0d1c77">3.49%</text>
<text text-anchor="middle" x="97" y="-64" font-family="Arial" font-size="10.00" fill="#0d1c77">18×</text>
</g>
<!-- 364 -->
<g id="node12" class="node"><title>364</title>
<polygon fill="#f92a01" stroke="#f92a01" points="479.5,-788 364.5,-788 364.5,-736 479.5,-736 479.5,-788"/>
<text text-anchor="middle" x="422" y="-776" font-family="Arial" font-size="10.00" fill="#ffffff">base:397:runTouchApp</text>
<text text-anchor="middle" x="422" y="-765" font-family="Arial" font-size="10.00" fill="#ffffff">95.83%</text>
<text text-anchor="middle" x="422" y="-754" font-family="Arial" font-size="10.00" fill="#ffffff">(0.00%)</text>
<text text-anchor="middle" x="422" y="-743" font-family="Arial" font-size="10.00" fill="#ffffff">1×</text>
</g>
<!-- 2347 -->
<g id="node13" class="node"><title>2347</title>
<polygon fill="#f82b01" stroke="#f82b01" points="496.25,-696 347.75,-696 347.75,-644 496.25,-644 496.25,-696"/>
<text text-anchor="middle" x="422" y="-684" font-family="Arial" font-size="10.00" fill="#ffffff">window_pygame:378:mainloop</text>
<text text-anchor="middle" x="422" y="-673" font-family="Arial" font-size="10.00" fill="#ffffff">95.73%</text>
<text text-anchor="middle" x="422" y="-662" font-family="Arial" font-size="10.00" fill="#ffffff">(0.07%)</text>
<text text-anchor="middle" x="422" y="-651" font-family="Arial" font-size="10.00" fill="#ffffff">1×</text>
</g>
<!-- 364&#45;&gt;2347 -->
<g id="edge8" class="edge"><title>364&#45;&gt;2347</title>
<path fill="none" stroke="#f82b01" stroke-width="3.83" d="M422,-735.93C422,-726.743 422,-716.166 422,-706.253"/>
<polygon fill="#f82b01" stroke="#f82b01" stroke-width="3.83" points="425.43,-706.048 422,-696.248 418.57,-706.048 425.43,-706.048"/>
<text text-anchor="middle" x="439" y="-719" font-family="Arial" font-size="10.00" fill="#f82b01">95.73%</text>
<text text-anchor="middle" x="439" y="-708" font-family="Arial" font-size="10.00" fill="#f82b01">1×</text>
</g>
<!-- 614 -->
<g id="node14" class="node"><title>614</title>
<polygon fill="#f82c01" stroke="#f82c01" points="506,-604 352,-604 352,-552 506,-552 506,-604"/>
<text text-anchor="middle" x="429" y="-592" font-family="Arial" font-size="10.00" fill="#ffffff">window_pygame:286:_mainloop</text>
<text text-anchor="middle" x="429" y="-581" font-family="Arial" font-size="10.00" fill="#ffffff">95.65%</text>
<text text-anchor="middle" x="429" y="-570" font-family="Arial" font-size="10.00" fill="#ffffff">(0.10%)</text>
<text text-anchor="middle" x="429" y="-559" font-family="Arial" font-size="10.00" fill="#ffffff">21160×</text>
</g>
<!-- 2347&#45;&gt;614 -->
<g id="edge18" class="edge"><title>2347&#45;&gt;614</title>
<path fill="none" stroke="#f82c01" stroke-width="3.83" d="M423.95,-643.93C424.664,-634.743 425.487,-624.166 426.258,-614.253"/>
<polygon fill="#f82c01" stroke="#f82c01" stroke-width="3.83" points="429.696,-614.284 427.036,-604.248 422.857,-613.752 429.696,-614.284"/>
<text text-anchor="middle" x="444" y="-627" font-family="Arial" font-size="10.00" fill="#f82c01">95.65%</text>
<text text-anchor="middle" x="444" y="-616" font-family="Arial" font-size="10.00" fill="#f82c01">21160×</text>
</g>
<!-- 3654 -->
<g id="node15" class="node"><title>3654</title>
<polygon fill="#f83001" stroke="#f83001" points="583,-512 509,-512 509,-460 583,-460 583,-512"/>
<text text-anchor="middle" x="546" y="-500" font-family="Arial" font-size="10.00" fill="#ffffff">base:311:idle</text>
<text text-anchor="middle" x="546" y="-489" font-family="Arial" font-size="10.00" fill="#ffffff">95.21%</text>
<text text-anchor="middle" x="546" y="-478" font-family="Arial" font-size="10.00" fill="#ffffff">(0.31%)</text>
<text text-anchor="middle" x="546" y="-467" font-family="Arial" font-size="10.00" fill="#ffffff">21160×</text>
</g>
<!-- 614&#45;&gt;3654 -->
<g id="edge9" class="edge"><title>614&#45;&gt;3654</title>
<path fill="none" stroke="#f83001" stroke-width="3.81" d="M461.591,-551.93C475.169,-541.485 491.081,-529.245 505.407,-518.225"/>
<polygon fill="#f83001" stroke="#f83001" stroke-width="3.81" points="507.502,-520.942 513.178,-512.248 503.319,-515.504 507.502,-520.942"/>
<text text-anchor="middle" x="519" y="-535" font-family="Arial" font-size="10.00" fill="#f83001">95.21%</text>
<text text-anchor="middle" x="519" y="-524" font-family="Arial" font-size="10.00" fill="#f83001">21160×</text>
</g>
<!-- 3654&#45;&gt;107 -->
<g id="edge29" class="edge"><title>3654&#45;&gt;107</title>
<path fill="none" stroke="#0d1a77" stroke-width="0.5" d="M513.688,-459.93C498.73,-448.325 480.915,-434.503 465.575,-422.601"/>
<polygon fill="#0d1a77" stroke="#0d1a77" stroke-width="0.5" points="466.058,-421.425 462.542,-420.248 464.556,-423.361 466.058,-421.425"/>
<text text-anchor="middle" x="516" y="-443" font-family="Arial" font-size="10.00" fill="#0d1a77">3.21%</text>
<text text-anchor="middle" x="516" y="-432" font-family="Arial" font-size="10.00" fill="#0d1a77">1682×</text>
</g>
<!-- 642 -->
<g id="node16" class="node"><title>642</title>
<polygon fill="#f06202" stroke="#f06202" points="662.25,-420 585.75,-420 585.75,-368 662.25,-368 662.25,-420"/>
<text text-anchor="middle" x="624" y="-408" font-family="Arial" font-size="10.00" fill="#ffffff">clock:382:tick</text>
<text text-anchor="middle" x="624" y="-397" font-family="Arial" font-size="10.00" fill="#ffffff">89.95%</text>
<text text-anchor="middle" x="624" y="-386" font-family="Arial" font-size="10.00" fill="#ffffff">(0.40%)</text>
<text text-anchor="middle" x="624" y="-375" font-family="Arial" font-size="10.00" fill="#ffffff">21160×</text>
</g>
<!-- 3654&#45;&gt;642 -->
<g id="edge28" class="edge"><title>3654&#45;&gt;642</title>
<path fill="none" stroke="#f06202" stroke-width="3.6" d="M567.727,-459.93C576.444,-449.872 586.604,-438.15 595.873,-427.455"/>
<polygon fill="#f06202" stroke="#f06202" stroke-width="3.6" points="598.409,-429.604 602.119,-420.248 593.384,-425.249 598.409,-429.604"/>
<text text-anchor="middle" x="612" y="-443" font-family="Arial" font-size="10.00" fill="#f06202">89.95%</text>
<text text-anchor="middle" x="612" y="-432" font-family="Arial" font-size="10.00" fill="#f06202">21160×</text>
</g>
<!-- 668 -->
<g id="node19" class="node"><title>668</title>
<polygon fill="#0d1074" stroke="#0d1074" points="794,-420 672,-420 672,-368 794,-368 794,-420"/>
<text text-anchor="middle" x="733" y="-408" font-family="Arial" font-size="10.00" fill="#ffffff">base:291:dispatch_input</text>
<text text-anchor="middle" x="733" y="-397" font-family="Arial" font-size="10.00" fill="#ffffff">0.87%</text>
<text text-anchor="middle" x="733" y="-386" font-family="Arial" font-size="10.00" fill="#ffffff">(0.34%)</text>
<text text-anchor="middle" x="733" y="-375" font-family="Arial" font-size="10.00" fill="#ffffff">21160×</text>
</g>
<!-- 3654&#45;&gt;668 -->
<g id="edge30" class="edge"><title>3654&#45;&gt;668</title>
<path fill="none" stroke="#0d1074" stroke-width="0.5" d="M583.238,-471.236C598.251,-465.395 615.623,-458.264 631,-451 649.495,-442.264 669.315,-431.678 686.52,-422.073"/>
<polygon fill="#0d1074" stroke="#0d1074" stroke-width="0.5" points="687.47,-422.945 689.925,-420.165 686.272,-420.807 687.47,-422.945"/>
<text text-anchor="middle" x="690.5" y="-443" font-family="Arial" font-size="10.00" fill="#0d1074">0.87%</text>
<text text-anchor="middle" x="690.5" y="-432" font-family="Arial" font-size="10.00" fill="#0d1074">21160×</text>
</g>
<!-- 3090 -->
<g id="node17" class="node"><title>3090</title>
<polygon fill="#0d1475" stroke="#0d1475" points="691,-328 557,-328 557,-276 691,-276 691,-328"/>
<text text-anchor="middle" x="624" y="-316" font-family="Arial" font-size="10.00" fill="#ffffff">clock:533:_process_events</text>
<text text-anchor="middle" x="624" y="-305" font-family="Arial" font-size="10.00" fill="#ffffff">1.85%</text>
<text text-anchor="middle" x="624" y="-294" font-family="Arial" font-size="10.00" fill="#ffffff">(0.32%)</text>
<text text-anchor="middle" x="624" y="-283" font-family="Arial" font-size="10.00" fill="#ffffff">21160×</text>
</g>
<!-- 642&#45;&gt;3090 -->
<g id="edge10" class="edge"><title>642&#45;&gt;3090</title>
<path fill="none" stroke="#0d1475" stroke-width="0.5" d="M624,-367.93C624,-356.712 624,-343.422 624,-331.798"/>
<polygon fill="#0d1475" stroke="#0d1475" stroke-width="0.5" points="625.225,-331.748 624,-328.248 622.775,-331.748 625.225,-331.748"/>
<text text-anchor="middle" x="640.5" y="-351" font-family="Arial" font-size="10.00" fill="#0d1475">1.85%</text>
<text text-anchor="middle" x="640.5" y="-340" font-family="Arial" font-size="10.00" fill="#0d1475">21160×</text>
</g>
<!-- 1999 -->
<g id="node18" class="node"><title>1999</title>
<polygon fill="#ec7703" stroke="#ec7703" points="790,-328 700,-328 700,-276 790,-276 790,-328"/>
<text text-anchor="middle" x="745" y="-316" font-family="Arial" font-size="10.00" fill="#ffffff">clock:214:usleep</text>
<text text-anchor="middle" x="745" y="-305" font-family="Arial" font-size="10.00" fill="#ffffff">87.60%</text>
<text text-anchor="middle" x="745" y="-294" font-family="Arial" font-size="10.00" fill="#ffffff">(0.07%)</text>
<text text-anchor="middle" x="745" y="-283" font-family="Arial" font-size="10.00" fill="#ffffff">20543×</text>
</g>
<!-- 642&#45;&gt;1999 -->
<g id="edge11" class="edge"><title>642&#45;&gt;1999</title>
<path fill="none" stroke="#ec7703" stroke-width="3.5" d="M657.705,-367.93C671.878,-357.389 688.508,-345.019 703.43,-333.92"/>
<polygon fill="#ec7703" stroke="#ec7703" stroke-width="3.5" points="705.477,-336.498 711.056,-328.248 701.55,-331.218 705.477,-336.498"/>
<text text-anchor="middle" x="716" y="-351" font-family="Arial" font-size="10.00" fill="#ec7703">87.60%</text>
<text text-anchor="middle" x="716" y="-340" font-family="Arial" font-size="10.00" fill="#ec7703">20543×</text>
</g>
<!-- 3090&#45;&gt;103 -->
<g id="edge23" class="edge"><title>3090&#45;&gt;103</title>
<path fill="none" stroke="#0d1375" stroke-width="0.5" d="M629.85,-275.93C632.467,-264.712 635.568,-251.422 638.281,-239.798"/>
<polygon fill="#0d1375" stroke="#0d1375" stroke-width="0.5" points="639.506,-239.935 639.109,-236.248 637.121,-239.378 639.506,-239.935"/>
<text text-anchor="middle" x="653.5" y="-259" font-family="Arial" font-size="10.00" fill="#0d1375">1.49%</text>
<text text-anchor="middle" x="653.5" y="-248" font-family="Arial" font-size="10.00" fill="#0d1375">66816×</text>
</g>
<!-- 5101 -->
<g id="node25" class="node"><title>5101</title>
<polygon fill="#ec7703" stroke="#ec7703" points="790.25,-236 699.75,-236 699.75,-184 790.25,-184 790.25,-236"/>
<text text-anchor="middle" x="745" y="-224" font-family="Arial" font-size="10.00" fill="#ffffff">~:0:&lt;time.sleep&gt;</text>
<text text-anchor="middle" x="745" y="-213" font-family="Arial" font-size="10.00" fill="#ffffff">87.53%</text>
<text text-anchor="middle" x="745" y="-202" font-family="Arial" font-size="10.00" fill="#ffffff">(87.53%)</text>
<text text-anchor="middle" x="745" y="-191" font-family="Arial" font-size="10.00" fill="#ffffff">20543×</text>
</g>
<!-- 1999&#45;&gt;5101 -->
<g id="edge16" class="edge"><title>1999&#45;&gt;5101</title>
<path fill="none" stroke="#ec7703" stroke-width="3.5" d="M745,-275.93C745,-266.646 745,-255.943 745,-245.94"/>
<polygon fill="#ec7703" stroke="#ec7703" stroke-width="3.5" points="748.29,-245.648 745,-236.248 741.71,-245.648 748.29,-245.648"/>
<text text-anchor="middle" x="762" y="-259" font-family="Arial" font-size="10.00" fill="#ec7703">87.53%</text>
<text text-anchor="middle" x="762" y="-248" font-family="Arial" font-size="10.00" fill="#ec7703">20543×</text>
</g>
<!-- 1226 -->
<g id="node20" class="node"><title>1226</title>
<polygon fill="#0d1c77" stroke="#0d1c77" points="133.25,-328 32.75,-328 32.75,-276 133.25,-276 133.25,-328"/>
<text text-anchor="middle" x="83" y="-316" font-family="Arial" font-size="10.00" fill="#ffffff">uniqueid:7:_get_uid</text>
<text text-anchor="middle" x="83" y="-305" font-family="Arial" font-size="10.00" fill="#ffffff">3.50%</text>
<text text-anchor="middle" x="83" y="-294" font-family="Arial" font-size="10.00" fill="#ffffff">(0.00%)</text>
<text text-anchor="middle" x="83" y="-283" font-family="Arial" font-size="10.00" fill="#ffffff">2×</text>
</g>
<!-- 3165 -->
<g id="node21" class="node"><title>3165</title>
<polygon fill="#0d1c77" stroke="#0d1c77" points="156.25,-236 9.75,-236 9.75,-184 156.25,-184 156.25,-236"/>
<text text-anchor="middle" x="83" y="-224" font-family="Arial" font-size="10.00" fill="#ffffff">subprocess:768:communicate</text>
<text text-anchor="middle" x="83" y="-213" font-family="Arial" font-size="10.00" fill="#ffffff">3.50%</text>
<text text-anchor="middle" x="83" y="-202" font-family="Arial" font-size="10.00" fill="#ffffff">(0.00%)</text>
<text text-anchor="middle" x="83" y="-191" font-family="Arial" font-size="10.00" fill="#ffffff">18×</text>
</g>
<!-- 1226&#45;&gt;3165 -->
<g id="edge12" class="edge"><title>1226&#45;&gt;3165</title>
<path fill="none" stroke="#0d1c77" stroke-width="0.5" d="M83,-275.93C83,-264.712 83,-251.422 83,-239.798"/>
<polygon fill="#0d1c77" stroke="#0d1c77" stroke-width="0.5" points="84.2251,-239.748 83,-236.248 81.7751,-239.748 84.2251,-239.748"/>
<text text-anchor="middle" x="97" y="-259" font-family="Arial" font-size="10.00" fill="#0d1c77">3.49%</text>
<text text-anchor="middle" x="97" y="-248" font-family="Arial" font-size="10.00" fill="#0d1c77">2×</text>
</g>
<!-- 3165&#45;&gt;331 -->
<g id="edge24" class="edge"><title>3165&#45;&gt;331</title>
<path fill="none" stroke="#0d1c77" stroke-width="0.5" d="M83,-183.93C83,-172.712 83,-159.422 83,-147.798"/>
<polygon fill="#0d1c77" stroke="#0d1c77" stroke-width="0.5" points="84.2251,-147.748 83,-144.248 81.7751,-147.748 84.2251,-147.748"/>
<text text-anchor="middle" x="97" y="-167" font-family="Arial" font-size="10.00" fill="#0d1c77">3.49%</text>
<text text-anchor="middle" x="97" y="-156" font-family="Arial" font-size="10.00" fill="#0d1c77">18×</text>
</g>
<!-- 1250 -->
<g id="node22" class="node"><title>1250</title>
<polygon fill="#f92a01" stroke="#f92a01" points="453,-910 385,-910 385,-858 453,-858 453,-910"/>
<text text-anchor="middle" x="419" y="-898" font-family="Arial" font-size="10.00" fill="#ffffff">app:760:run</text>
<text text-anchor="middle" x="419" y="-887" font-family="Arial" font-size="10.00" fill="#ffffff">95.83%</text>
<text text-anchor="middle" x="419" y="-876" font-family="Arial" font-size="10.00" fill="#ffffff">(0.00%)</text>
<text text-anchor="middle" x="419" y="-865" font-family="Arial" font-size="10.00" fill="#ffffff">1×</text>
</g>
<!-- 1250&#45;&gt;364 -->
<g id="edge13" class="edge"><title>1250&#45;&gt;364</title>
<path fill="none" stroke="#f92a01" stroke-width="3.83" d="M419.629,-857.844C420.063,-840.484 420.646,-817.168 421.125,-797.998"/>
<polygon fill="#f92a01" stroke="#f92a01" stroke-width="3.83" points="424.556,-798.006 421.372,-788.123 417.698,-797.834 424.556,-798.006"/>
<text text-anchor="middle" x="439" y="-826" font-family="Arial" font-size="10.00" fill="#f92a01">95.83%</text>
<text text-anchor="middle" x="439" y="-815" font-family="Arial" font-size="10.00" fill="#f92a01">1×</text>
</g>
<!-- 3520 -->
<g id="node27" class="node"><title>3520</title>
<polygon fill="#0d1776" stroke="#0d1776" points="587.25,-144 420.75,-144 420.75,-92 587.25,-92 587.25,-144"/>
<text text-anchor="middle" x="504" y="-132" font-family="Arial" font-size="10.00" fill="#ffffff">~:0:&lt;kivy.graphics.opengl.glClear&gt;</text>
<text text-anchor="middle" x="504" y="-121" font-family="Arial" font-size="10.00" fill="#ffffff">2.41%</text>
<text text-anchor="middle" x="504" y="-110" font-family="Arial" font-size="10.00" fill="#ffffff">(2.41%)</text>
<text text-anchor="middle" x="504" y="-99" font-family="Arial" font-size="10.00" fill="#ffffff">841×</text>
</g>
<!-- 2585&#45;&gt;3520 -->
<g id="edge19" class="edge"><title>2585&#45;&gt;3520</title>
<path fill="none" stroke="#0d1776" stroke-width="0.5" d="M515.543,-183.93C513.549,-172.712 511.186,-159.422 509.12,-147.798"/>
<polygon fill="#0d1776" stroke="#0d1776" stroke-width="0.5" points="510.307,-147.479 508.488,-144.248 507.895,-147.908 510.307,-147.479"/>
<text text-anchor="middle" x="528" y="-167" font-family="Arial" font-size="10.00" fill="#0d1776">2.41%</text>
<text text-anchor="middle" x="528" y="-156" font-family="Arial" font-size="10.00" fill="#0d1776">841×</text>
</g>
<!-- 2299 -->
<g id="node26" class="node"><title>2299</title>
<polygon fill="#0d1e78" stroke="#0d1e78" points="345.25,-1094 240.75,-1094 240.75,-1042 345.25,-1042 345.25,-1094"/>
<text text-anchor="middle" x="293" y="-1082" font-family="Arial" font-size="10.00" fill="#ffffff">__init__:9:&lt;module&gt;</text>
<text text-anchor="middle" x="293" y="-1071" font-family="Arial" font-size="10.00" fill="#ffffff">4.11%</text>
<text text-anchor="middle" x="293" y="-1060" font-family="Arial" font-size="10.00" fill="#ffffff">(0.00%)</text>
<text text-anchor="middle" x="293" y="-1049" font-family="Arial" font-size="10.00" fill="#ffffff">1×</text>
</g>
<!-- 2299&#45;&gt;276 -->
<g id="edge17" class="edge"><title>2299&#45;&gt;276</title>
<path fill="none" stroke="#0d1e78" stroke-width="0.5" d="M293,-1041.93C293,-1030.71 293,-1017.42 293,-1005.8"/>
<polygon fill="#0d1e78" stroke="#0d1e78" stroke-width="0.5" points="294.225,-1005.75 293,-1002.25 291.775,-1005.75 294.225,-1005.75"/>
<text text-anchor="middle" x="307" y="-1025" font-family="Arial" font-size="10.00" fill="#0d1e78">4.09%</text>
<text text-anchor="middle" x="307" y="-1014" font-family="Arial" font-size="10.00" fill="#0d1e78">1×</text>
</g>
<!-- 4263 -->
<g id="node29" class="node"><title>4263</title>
<polygon fill="#0d1c77" stroke="#0d1c77" points="124,-512 44,-512 44,-460 124,-460 124,-512"/>
<text text-anchor="middle" x="84" y="-500" font-family="Arial" font-size="10.00" fill="#ffffff">facades:385:id</text>
<text text-anchor="middle" x="84" y="-489" font-family="Arial" font-size="10.00" fill="#ffffff">3.50%</text>
<text text-anchor="middle" x="84" y="-478" font-family="Arial" font-size="10.00" fill="#ffffff">(0.00%)</text>
<text text-anchor="middle" x="84" y="-467" font-family="Arial" font-size="10.00" fill="#ffffff">2×</text>
</g>
<!-- 2827&#45;&gt;4263 -->
<g id="edge20" class="edge"><title>2827&#45;&gt;4263</title>
<path fill="none" stroke="#0d1c77" stroke-width="0.5" d="M155.423,-551.93C142.764,-540.421 127.707,-526.734 114.689,-514.899"/>
<polygon fill="#0d1c77" stroke="#0d1c77" stroke-width="0.5" points="115.186,-513.696 111.772,-512.248 113.538,-515.509 115.186,-513.696"/>
<text text-anchor="middle" x="160" y="-535" font-family="Arial" font-size="10.00" fill="#0d1c77">3.50%</text>
<text text-anchor="middle" x="160" y="-524" font-family="Arial" font-size="10.00" fill="#0d1c77">2×</text>
</g>
<!-- 4262 -->
<g id="node33" class="node"><title>4262</title>
<polygon fill="#0d1c77" stroke="#0d1c77" points="135,-420 31,-420 31,-368 135,-368 135,-420"/>
<text text-anchor="middle" x="83" y="-408" font-family="Arial" font-size="10.00" fill="#ffffff">facades:391:get_uid</text>
<text text-anchor="middle" x="83" y="-397" font-family="Arial" font-size="10.00" fill="#ffffff">3.50%</text>
<text text-anchor="middle" x="83" y="-386" font-family="Arial" font-size="10.00" fill="#ffffff">(0.00%)</text>
<text text-anchor="middle" x="83" y="-375" font-family="Arial" font-size="10.00" fill="#ffffff">2×</text>
</g>
<!-- 4263&#45;&gt;4262 -->
<g id="edge33" class="edge"><title>4263&#45;&gt;4262</title>
<path fill="none" stroke="#0d1c77" stroke-width="0.5" d="M83.7214,-459.93C83.5968,-448.712 83.4491,-435.422 83.32,-423.798"/>
<polygon fill="#0d1c77" stroke="#0d1c77" stroke-width="0.5" points="84.5444,-423.734 83.2805,-420.248 82.0946,-423.761 84.5444,-423.734"/>
<text text-anchor="middle" x="98" y="-443" font-family="Arial" font-size="10.00" fill="#0d1c77">3.50%</text>
<text text-anchor="middle" x="98" y="-432" font-family="Arial" font-size="10.00" fill="#0d1c77">2×</text>
</g>
<!-- 3045 -->
<g id="node30" class="node"><title>3045</title>
<polygon fill="#f92a01" stroke="#f92a01" points="458,-1002 376,-1002 376,-950 458,-950 458,-1002"/>
<text text-anchor="middle" x="417" y="-990" font-family="Arial" font-size="10.00" fill="#ffffff">services:85:run</text>
<text text-anchor="middle" x="417" y="-979" font-family="Arial" font-size="10.00" fill="#ffffff">95.83%</text>
<text text-anchor="middle" x="417" y="-968" font-family="Arial" font-size="10.00" fill="#ffffff">(0.00%)</text>
<text text-anchor="middle" x="417" y="-957" font-family="Arial" font-size="10.00" fill="#ffffff">1×</text>
</g>
<!-- 3045&#45;&gt;1250 -->
<g id="edge22" class="edge"><title>3045&#45;&gt;1250</title>
<path fill="none" stroke="#f92a01" stroke-width="3.83" d="M417.557,-949.93C417.761,-940.743 417.996,-930.166 418.217,-920.253"/>
<polygon fill="#f92a01" stroke="#f92a01" stroke-width="3.83" points="421.65,-920.122 418.439,-910.248 414.792,-919.969 421.65,-920.122"/>
<text text-anchor="middle" x="436" y="-933" font-family="Arial" font-size="10.00" fill="#f92a01">95.83%</text>
<text text-anchor="middle" x="436" y="-922" font-family="Arial" font-size="10.00" fill="#f92a01">1×</text>
</g>
<!-- 3589 -->
<g id="node31" class="node"><title>3589</title>
<polygon fill="#f92a01" stroke="#f92a01" points="479.25,-1094 354.75,-1094 354.75,-1042 479.25,-1042 479.25,-1094"/>
<text text-anchor="middle" x="417" y="-1082" font-family="Arial" font-size="10.00" fill="#ffffff">utilities:271:run_kivy_app</text>
<text text-anchor="middle" x="417" y="-1071" font-family="Arial" font-size="10.00" fill="#ffffff">95.89%</text>
<text text-anchor="middle" x="417" y="-1060" font-family="Arial" font-size="10.00" fill="#ffffff">(0.00%)</text>
<text text-anchor="middle" x="417" y="-1049" font-family="Arial" font-size="10.00" fill="#ffffff">1×</text>
</g>
<!-- 3589&#45;&gt;3045 -->
<g id="edge25" class="edge"><title>3589&#45;&gt;3045</title>
<path fill="none" stroke="#f92a01" stroke-width="3.83" d="M417,-1041.93C417,-1032.74 417,-1022.17 417,-1012.25"/>
<polygon fill="#f92a01" stroke="#f92a01" stroke-width="3.83" points="420.43,-1012.05 417,-1002.25 413.57,-1012.05 420.43,-1012.05"/>
<text text-anchor="middle" x="434" y="-1025" font-family="Arial" font-size="10.00" fill="#f92a01">95.83%</text>
<text text-anchor="middle" x="434" y="-1014" font-family="Arial" font-size="10.00" fill="#f92a01">1×</text>
</g>
<!-- 3590 -->
<g id="node32" class="node"><title>3590</title>
<polygon fill="#ff0000" stroke="#ff0000" points="413.5,-1186 316.5,-1186 316.5,-1134 413.5,-1134 413.5,-1186"/>
<text text-anchor="middle" x="365" y="-1174" font-family="Arial" font-size="10.00" fill="#ffffff">main:11:&lt;module&gt;</text>
<text text-anchor="middle" x="365" y="-1163" font-family="Arial" font-size="10.00" fill="#ffffff">100.00%</text>
<text text-anchor="middle" x="365" y="-1152" font-family="Arial" font-size="10.00" fill="#ffffff">(0.00%)</text>
<text text-anchor="middle" x="365" y="-1141" font-family="Arial" font-size="10.00" fill="#ffffff">1×</text>
</g>
<!-- 3590&#45;&gt;2299 -->
<g id="edge26" class="edge"><title>3590&#45;&gt;2299</title>
<path fill="none" stroke="#0d1e78" stroke-width="0.5" d="M344.944,-1133.93C335.815,-1122.52 324.971,-1108.96 315.558,-1097.2"/>
<polygon fill="#0d1e78" stroke="#0d1e78" stroke-width="0.5" points="316.341,-1096.22 313.198,-1094.25 314.428,-1097.75 316.341,-1096.22"/>
<text text-anchor="middle" x="352" y="-1117" font-family="Arial" font-size="10.00" fill="#0d1e78">4.11%</text>
<text text-anchor="middle" x="352" y="-1106" font-family="Arial" font-size="10.00" fill="#0d1e78">1×</text>
</g>
<!-- 3590&#45;&gt;3589 -->
<g id="edge27" class="edge"><title>3590&#45;&gt;3589</title>
<path fill="none" stroke="#f92a01" stroke-width="3.84" d="M379.485,-1133.93C385.017,-1124.36 391.42,-1113.27 397.353,-1103"/>
<polygon fill="#f92a01" stroke="#f92a01" stroke-width="3.84" points="400.48,-1104.45 402.412,-1094.25 394.54,-1101.02 400.48,-1104.45"/>
<text text-anchor="middle" x="415" y="-1117" font-family="Arial" font-size="10.00" fill="#f92a01">95.89%</text>
<text text-anchor="middle" x="415" y="-1106" font-family="Arial" font-size="10.00" fill="#f92a01">1×</text>
</g>
<!-- 4262&#45;&gt;1226 -->
<g id="edge32" class="edge"><title>4262&#45;&gt;1226</title>
<path fill="none" stroke="#0d1c77" stroke-width="0.5" d="M83,-367.93C83,-356.712 83,-343.422 83,-331.798"/>
<polygon fill="#0d1c77" stroke="#0d1c77" stroke-width="0.5" points="84.2251,-331.748 83,-328.248 81.7751,-331.748 84.2251,-331.748"/>
<text text-anchor="middle" x="97" y="-351" font-family="Arial" font-size="10.00" fill="#0d1c77">3.50%</text>
<text text-anchor="middle" x="97" y="-340" font-family="Arial" font-size="10.00" fill="#0d1c77">2×</text>
</g>
</g>
</svg>
